<svg xmlns="http://www.w3.org/2000/svg" xmlns:xlink="http://www.w3.org/1999/xlink" width="77" height="53" viewBox="0 0 77 53">
  <defs>
    <filter id="사각형_106" x="0" y="0" width="77" height="53" filterUnits="userSpaceOnUse">
      <feOffset dx="3" input="SourceAlpha"/>
      <feGaussianBlur stdDeviation="1.5" result="blur"/>
      <feFlood flood-opacity="0.161"/>
      <feComposite operator="in" in2="blur"/>
      <feComposite in="SourceGraphic"/>
    </filter>
  </defs>
  <g id="그룹_153" data-name="그룹 153" transform="translate(-1438.5 -146.5)">
    <g id="그룹_82" data-name="그룹 82" transform="translate(1607.844 -1569.395) rotate(90)">
      <g transform="matrix(0, -1, 1, 0, 1715.9, 169.34)" filter="url(#사각형_106)">
        <rect id="사각형_106-2" data-name="사각형 106" width="44" height="68" transform="translate(69.5 4.5) rotate(90)" fill="rgba(127,216,219,0.75)"/>
      </g>
      <rect id="사각형_109" data-name="사각형 109" width="15" height="68" transform="translate(1720.395 99.844)" fill="#ede682"/>
    </g>
    <path id="패스_98" data-name="패스 98" d="M-11.7,0V-.832l-1.456-.256v-8.7h.24q.72,0,1.24.032t.856.08l.224,1.312H-9.52V-10.8h-8.688v2.432h1.088l.24-1.312q.288-.048.688-.088t1.312-.04h.256v8.72l-1.456.256V0ZM-1.184-3.968A4.247,4.247,0,0,0-2.16-6.96,3.419,3.419,0,0,0-4.8-8.016,3.448,3.448,0,0,0-7.488-6.96a4.292,4.292,0,0,0-.96,2.992,6.039,6.039,0,0,0,.216,1.656,3.548,3.548,0,0,0,.664,1.3,2.989,2.989,0,0,0,1.12.864,3.815,3.815,0,0,0,1.584.3,4.015,4.015,0,0,0,1.632-.3A3.1,3.1,0,0,0-2.08-1.008a3.644,3.644,0,0,0,.672-1.3A5.837,5.837,0,0,0-1.184-3.968Zm-1.552.016A4.067,4.067,0,0,1-3.28-1.624a1.813,1.813,0,0,1-1.584.776,1.687,1.687,0,0,1-1.5-.776A4.305,4.305,0,0,1-6.88-3.968a4.048,4.048,0,0,1,.52-2.3A1.777,1.777,0,0,1-4.8-7.008a1.77,1.77,0,0,1,1.528.744A3.987,3.987,0,0,1-2.736-3.952Zm10.72-1.52a7.8,7.8,0,0,1-.192,1.8,3.7,3.7,0,0,1-.624,1.384,2.837,2.837,0,0,1-1.12.888,4.012,4.012,0,0,1-1.664.312H3.136V-9.744h.8A3.86,3.86,0,0,1,6.992-8.616,4.6,4.6,0,0,1,7.984-5.472ZM.7-10.8v.784l.96.208V-1.04L.544-.8V0H4.256a5.087,5.087,0,0,0,3.92-1.448A5.665,5.665,0,0,0,9.52-5.456a6.612,6.612,0,0,0-.4-2.424A4.175,4.175,0,0,0,7.984-9.536a4.545,4.545,0,0,0-1.768-.96,8.049,8.049,0,0,0-2.28-.3ZM17.952-3.968a4.247,4.247,0,0,0-.976-2.992,3.419,3.419,0,0,0-2.64-1.056A3.448,3.448,0,0,0,11.648-6.96a4.292,4.292,0,0,0-.96,2.992A6.039,6.039,0,0,0,10.9-2.312a3.548,3.548,0,0,0,.664,1.3,2.989,2.989,0,0,0,1.12.864,3.815,3.815,0,0,0,1.584.3,4.015,4.015,0,0,0,1.632-.3,3.1,3.1,0,0,0,1.152-.864,3.644,3.644,0,0,0,.672-1.3A5.837,5.837,0,0,0,17.952-3.968ZM16.4-3.952a4.067,4.067,0,0,1-.544,2.328,1.813,1.813,0,0,1-1.584.776,1.687,1.687,0,0,1-1.5-.776,4.305,4.305,0,0,1-.512-2.344,4.048,4.048,0,0,1,.52-2.3,1.777,1.777,0,0,1,1.56-.744,1.77,1.77,0,0,1,1.528.744A3.987,3.987,0,0,1,16.4-3.952Z" transform="translate(1474 185)" fill="#0d1117"/>
  </g>
</svg>
