<svg xmlns="http://www.w3.org/2000/svg" width="280" height="200" viewBox="0 0 280 200">
  <g id="그룹_113" data-name="그룹 113" transform="translate(-1005 -620)">
    <g id="사각형_122" data-name="사각형 122" transform="translate(1005 620)" fill="rgba(237,230,130,0.5)" stroke="#fff" stroke-width="2">
      <rect width="40" height="40" rx="5" stroke="none"/>
      <rect x="1" y="1" width="38" height="38" rx="4" fill="none"/>
    </g>
    <g id="사각형_123" data-name="사각형 123" transform="translate(1045 620)" fill="#ede682" stroke="#fff" stroke-width="2">
      <rect width="40" height="40" rx="5" stroke="none"/>
      <rect x="1" y="1" width="38" height="38" rx="4" fill="none"/>
    </g>
    <g id="사각형_124" data-name="사각형 124" transform="translate(1085 620)" fill="#fff" stroke="#fff" stroke-width="2">
      <rect width="40" height="40" rx="5" stroke="none"/>
      <rect x="1" y="1" width="38" height="38" rx="4" fill="none"/>
    </g>
    <g id="사각형_125" data-name="사각형 125" transform="translate(1125 620)" fill="#ede682" stroke="#fff" stroke-width="2">
      <rect width="40" height="40" rx="5" stroke="none"/>
      <rect x="1" y="1" width="38" height="38" rx="4" fill="none"/>
    </g>
    <g id="사각형_126" data-name="사각형 126" transform="translate(1165 620)" fill="rgba(237,230,130,0)" stroke="#fff" stroke-width="2">
      <rect width="40" height="40" rx="5" stroke="none"/>
      <rect x="1" y="1" width="38" height="38" rx="4" fill="none"/>
    </g>
    <g id="사각형_127" data-name="사각형 127" transform="translate(1205 620)" fill="#faf8d9" stroke="#fff" stroke-width="2">
      <rect width="40" height="40" rx="5" stroke="none"/>
      <rect x="1" y="1" width="38" height="38" rx="4" fill="none"/>
    </g>
    <g id="사각형_128" data-name="사각형 128" transform="translate(1245 620)" fill="#ede682" stroke="#fff" stroke-width="2">
      <rect width="40" height="40" rx="5" stroke="none"/>
      <rect x="1" y="1" width="38" height="38" rx="4" fill="none"/>
    </g>
    <g id="사각형_129" data-name="사각형 129" transform="translate(1005 660)" fill="#ede682" stroke="#fff" stroke-width="2">
      <rect width="40" height="40" rx="5" stroke="none"/>
      <rect x="1" y="1" width="38" height="38" rx="4" fill="none"/>
    </g>
    <g id="사각형_130" data-name="사각형 130" transform="translate(1045 660)" fill="#ede682" stroke="#fff" stroke-width="2">
      <rect width="40" height="40" rx="5" stroke="none"/>
      <rect x="1" y="1" width="38" height="38" rx="4" fill="none"/>
    </g>
    <g id="사각형_131" data-name="사각형 131" transform="translate(1085 660)" fill="rgba(237,230,130,0.25)" stroke="#fff" stroke-width="2">
      <rect width="40" height="40" rx="5" stroke="none"/>
      <rect x="1" y="1" width="38" height="38" rx="4" fill="none"/>
    </g>
    <g id="사각형_132" data-name="사각형 132" transform="translate(1125 660)" fill="#f4f0b4" stroke="#fff" stroke-width="2">
      <rect width="40" height="40" rx="5" stroke="none"/>
      <rect x="1" y="1" width="38" height="38" rx="4" fill="none"/>
    </g>
    <g id="사각형_133" data-name="사각형 133" transform="translate(1165 660)" fill="#ede682" stroke="#fff" stroke-width="2">
      <rect width="40" height="40" rx="5" stroke="none"/>
      <rect x="1" y="1" width="38" height="38" rx="4" fill="none"/>
    </g>
    <g id="사각형_134" data-name="사각형 134" transform="translate(1205 660)" fill="#f4f0b4" stroke="#fff" stroke-width="2">
      <rect width="40" height="40" rx="5" stroke="none"/>
      <rect x="1" y="1" width="38" height="38" rx="4" fill="none"/>
    </g>
    <g id="사각형_135" data-name="사각형 135" transform="translate(1245 660)" fill="rgba(237,230,130,0.7)" stroke="#fff" stroke-width="2">
      <rect width="40" height="40" rx="5" stroke="none"/>
      <rect x="1" y="1" width="38" height="38" rx="4" fill="none"/>
    </g>
    <g id="사각형_136" data-name="사각형 136" transform="translate(1005 700)" fill="#ede682" stroke="#fff" stroke-width="2">
      <rect width="40" height="40" rx="5" stroke="none"/>
      <rect x="1" y="1" width="38" height="38" rx="4" fill="none"/>
    </g>
    <g id="사각형_137" data-name="사각형 137" transform="translate(1045 700)" fill="rgba(237,230,130,0.4)" stroke="#fff" stroke-width="2">
      <rect width="40" height="40" rx="5" stroke="none"/>
      <rect x="1" y="1" width="38" height="38" rx="4" fill="none"/>
    </g>
    <g id="사각형_138" data-name="사각형 138" transform="translate(1085 700)" fill="#ede682" stroke="#fff" stroke-width="2">
      <rect width="40" height="40" rx="5" stroke="none"/>
      <rect x="1" y="1" width="38" height="38" rx="4" fill="none"/>
    </g>
    <g id="사각형_139" data-name="사각형 139" transform="translate(1125 700)" fill="#fff" stroke="#fff" stroke-width="2">
      <rect width="40" height="40" rx="5" stroke="none"/>
      <rect x="1" y="1" width="38" height="38" rx="4" fill="none"/>
    </g>
    <g id="사각형_140" data-name="사각형 140" transform="translate(1165 700)" fill="rgba(237,230,130,0.3)" stroke="#fff" stroke-width="2">
      <rect width="40" height="40" rx="5" stroke="none"/>
      <rect x="1" y="1" width="38" height="38" rx="4" fill="none"/>
    </g>
    <g id="사각형_141" data-name="사각형 141" transform="translate(1205 700)" fill="#ede682" stroke="#fff" stroke-width="2">
      <rect width="40" height="40" rx="5" stroke="none"/>
      <rect x="1" y="1" width="38" height="38" rx="4" fill="none"/>
    </g>
    <g id="사각형_142" data-name="사각형 142" transform="translate(1245 700)" fill="#ede682" stroke="#fff" stroke-width="2">
      <rect width="40" height="40" rx="5" stroke="none"/>
      <rect x="1" y="1" width="38" height="38" rx="4" fill="none"/>
    </g>
    <g id="사각형_143" data-name="사각형 143" transform="translate(1005 740)" fill="#f6f2c0" stroke="#fff" stroke-width="2">
      <rect width="40" height="40" rx="5" stroke="none"/>
      <rect x="1" y="1" width="38" height="38" rx="4" fill="none"/>
    </g>
    <g id="사각형_144" data-name="사각형 144" transform="translate(1045 740)" fill="#ede682" stroke="#fff" stroke-width="2">
      <rect width="40" height="40" rx="5" stroke="none"/>
      <rect x="1" y="1" width="38" height="38" rx="4" fill="none"/>
    </g>
    <g id="사각형_145" data-name="사각형 145" transform="translate(1085 740)" fill="rgba(237,230,130,0)" stroke="#fff" stroke-width="2">
      <rect width="40" height="40" rx="5" stroke="none"/>
      <rect x="1" y="1" width="38" height="38" rx="4" fill="none"/>
    </g>
    <g id="사각형_146" data-name="사각형 146" transform="translate(1125 740)" fill="#ede682" stroke="#fff" stroke-width="2">
      <rect width="40" height="40" rx="5" stroke="none"/>
      <rect x="1" y="1" width="38" height="38" rx="4" fill="none"/>
    </g>
    <g id="사각형_147" data-name="사각형 147" transform="translate(1165 740)" fill="#ede682" stroke="#fff" stroke-width="2">
      <rect width="40" height="40" rx="5" stroke="none"/>
      <rect x="1" y="1" width="38" height="38" rx="4" fill="none"/>
    </g>
    <g id="사각형_148" data-name="사각형 148" transform="translate(1205 740)" fill="#fdfdf2" stroke="#fff" stroke-width="2">
      <rect width="40" height="40" rx="5" stroke="none"/>
      <rect x="1" y="1" width="38" height="38" rx="4" fill="none"/>
    </g>
    <g id="사각형_149" data-name="사각형 149" transform="translate(1245 740)" fill="#f4f0b4" stroke="#fff" stroke-width="2">
      <rect width="40" height="40" rx="5" stroke="none"/>
      <rect x="1" y="1" width="38" height="38" rx="4" fill="none"/>
    </g>
    <g id="사각형_150" data-name="사각형 150" transform="translate(1005 780)" fill="rgba(237,230,130,0)" stroke="#fff" stroke-width="2">
      <rect width="40" height="40" rx="5" stroke="none"/>
      <rect x="1" y="1" width="38" height="38" rx="4" fill="none"/>
    </g>
    <g id="사각형_151" data-name="사각형 151" transform="translate(1045 780)" fill="#ede682" stroke="#fff" stroke-width="2">
      <rect width="40" height="40" rx="5" stroke="none"/>
      <rect x="1" y="1" width="38" height="38" rx="4" fill="none"/>
    </g>
    <g id="사각형_152" data-name="사각형 152" transform="translate(1085 780)" fill="rgba(237,230,130,0.8)" stroke="#fff" stroke-width="2">
      <rect width="40" height="40" rx="5" stroke="none"/>
      <rect x="1" y="1" width="38" height="38" rx="4" fill="none"/>
    </g>
    <g id="사각형_153" data-name="사각형 153" transform="translate(1125 780)" fill="#f6f2c0" stroke="#fff" stroke-width="2">
      <rect width="40" height="40" rx="5" stroke="none"/>
      <rect x="1" y="1" width="38" height="38" rx="4" fill="none"/>
    </g>
    <g id="사각형_154" data-name="사각형 154" transform="translate(1165 780)" fill="rgba(237,230,130,0.1)" stroke="#fff" stroke-width="2">
      <rect width="40" height="40" rx="5" stroke="none"/>
      <rect x="1" y="1" width="38" height="38" rx="4" fill="none"/>
    </g>
    <g id="사각형_155" data-name="사각형 155" transform="translate(1205 780)" fill="rgba(237,230,130,0.5)" stroke="#fff" stroke-width="2">
      <rect width="40" height="40" rx="5" stroke="none"/>
      <rect x="1" y="1" width="38" height="38" rx="4" fill="none"/>
    </g>
    <g id="사각형_156" data-name="사각형 156" transform="translate(1245 780)" fill="#fdfdf2" stroke="#7fd8da" stroke-width="2">
      <rect width="40" height="40" rx="5" stroke="none"/>
      <rect x="1" y="1" width="38" height="38" rx="4" fill="none"/>
    </g>
    <g id="그룹_111" data-name="그룹 111">
      <text id="_5" data-name="5" transform="translate(1265 805)" fill="#0d1117" font-size="15" font-family="GyeonggiBatangB, GyeonggiBatang"><tspan x="-3.75" y="0">5</tspan></text>
      <text id="_4" data-name="4" transform="translate(1225 805)" fill="#0d1117" font-size="15" font-family="GyeonggiBatangB, GyeonggiBatang"><tspan x="-3.75" y="0">4</tspan></text>
      <text id="_3" data-name="3" transform="translate(1185 805)" fill="#0d1117" font-size="15" font-family="GyeonggiBatangB, GyeonggiBatang"><tspan x="-3.75" y="0">3</tspan></text>
      <text id="_2" data-name="2" transform="translate(1145 805)" fill="#0d1117" font-size="15" font-family="GyeonggiBatangB, GyeonggiBatang"><tspan x="-3.75" y="0">2</tspan></text>
      <text id="_1" data-name="1" transform="translate(1105 805)" fill="#0d1117" font-size="15" font-family="GyeonggiBatangB, GyeonggiBatang"><tspan x="-3.75" y="0">1</tspan></text>
      <text id="_30" data-name="30" transform="translate(1065 805)" fill="#0d1117" font-size="15" font-family="GyeonggiBatangB, GyeonggiBatang"><tspan x="-7.5" y="0">30</tspan></text>
      <text id="_29" data-name="29" transform="translate(1025 805)" fill="#0d1117" font-size="15" font-family="GyeonggiBatangB, GyeonggiBatang"><tspan x="-7.5" y="0">29</tspan></text>
      <text id="_22" data-name="22" transform="translate(1025 765)" fill="#0d1117" font-size="15" font-family="GyeonggiBatangB, GyeonggiBatang"><tspan x="-7.5" y="0">22</tspan></text>
      <text id="_23" data-name="23" transform="translate(1065 765)" fill="#0d1117" font-size="15" font-family="GyeonggiBatangB, GyeonggiBatang"><tspan x="-7.5" y="0">23</tspan></text>
      <text id="_24" data-name="24" transform="translate(1105 765)" fill="#0d1117" font-size="15" font-family="GyeonggiBatangB, GyeonggiBatang"><tspan x="-7.5" y="0">24</tspan></text>
      <text id="_25" data-name="25" transform="translate(1145 765)" fill="#0d1117" font-size="15" font-family="GyeonggiBatangB, GyeonggiBatang"><tspan x="-7.5" y="0">25</tspan></text>
      <text id="_26" data-name="26" transform="translate(1185 765)" fill="#0d1117" font-size="15" font-family="GyeonggiBatangB, GyeonggiBatang"><tspan x="-7.5" y="0">26</tspan></text>
      <text id="_27" data-name="27" transform="translate(1225 765)" fill="#0d1117" font-size="15" font-family="GyeonggiBatangB, GyeonggiBatang"><tspan x="-7.5" y="0">27</tspan></text>
      <text id="_28" data-name="28" transform="translate(1265 765)" fill="#0d1117" font-size="15" font-family="GyeonggiBatangB, GyeonggiBatang"><tspan x="-7.5" y="0">28</tspan></text>
      <text id="_21" data-name="21" transform="translate(1265 725)" fill="#0d1117" font-size="15" font-family="GyeonggiBatangB, GyeonggiBatang"><tspan x="-7.5" y="0">21</tspan></text>
      <text id="_20" data-name="20" transform="translate(1225 725)" fill="#0d1117" font-size="15" font-family="GyeonggiBatangB, GyeonggiBatang"><tspan x="-7.5" y="0">20</tspan></text>
      <text id="_19" data-name="19" transform="translate(1185 725)" fill="#0d1117" font-size="15" font-family="GyeonggiBatangB, GyeonggiBatang"><tspan x="-7.5" y="0">19</tspan></text>
      <text id="_18" data-name="18" transform="translate(1145 725)" fill="#0d1117" font-size="15" font-family="GyeonggiBatangB, GyeonggiBatang"><tspan x="-7.5" y="0">18</tspan></text>
      <text id="_17" data-name="17" transform="translate(1105 725)" fill="#0d1117" font-size="15" font-family="GyeonggiBatangB, GyeonggiBatang"><tspan x="-7.5" y="0">17</tspan></text>
      <text id="_15" data-name="15" transform="translate(1025 725)" fill="#0d1117" font-size="15" font-family="GyeonggiBatangB, GyeonggiBatang"><tspan x="-7.5" y="0">15</tspan></text>
      <text id="_16" data-name="16" transform="translate(1065 725)" fill="#0d1117" font-size="15" font-family="GyeonggiBatangB, GyeonggiBatang"><tspan x="-7.5" y="0">16</tspan></text>
      <text id="_8" data-name="8" transform="translate(1025 685)" fill="#0d1117" font-size="15" font-family="GyeonggiBatangB, GyeonggiBatang"><tspan x="-3.75" y="0">8</tspan></text>
      <text id="_9" data-name="9" transform="translate(1065 685)" fill="#0d1117" font-size="15" font-family="GyeonggiBatangB, GyeonggiBatang"><tspan x="-3.75" y="0">9</tspan></text>
      <text id="_10" data-name="10" transform="translate(1105 685)" fill="#0d1117" font-size="15" font-family="GyeonggiBatangB, GyeonggiBatang"><tspan x="-7.5" y="0">10</tspan></text>
      <text id="_11" data-name="11" transform="translate(1145 685)" fill="#0d1117" font-size="15" font-family="GyeonggiBatangB, GyeonggiBatang"><tspan x="-7.5" y="0">11</tspan></text>
      <text id="_12" data-name="12" transform="translate(1185 685)" fill="#0d1117" font-size="15" font-family="GyeonggiBatangB, GyeonggiBatang"><tspan x="-7.5" y="0">12</tspan></text>
      <text id="_13" data-name="13" transform="translate(1225 685)" fill="#0d1117" font-size="15" font-family="GyeonggiBatangB, GyeonggiBatang"><tspan x="-7.5" y="0">13</tspan></text>
      <text id="_14" data-name="14" transform="translate(1265 685)" fill="#0d1117" font-size="15" font-family="GyeonggiBatangB, GyeonggiBatang"><tspan x="-7.5" y="0">14</tspan></text>
      <text id="_7" data-name="7" transform="translate(1265 645)" fill="#0d1117" font-size="15" font-family="GyeonggiBatangB, GyeonggiBatang"><tspan x="-3.75" y="0">7</tspan></text>
      <text id="_6" data-name="6" transform="translate(1225 645)" fill="#0d1117" font-size="15" font-family="GyeonggiBatangB, GyeonggiBatang"><tspan x="-3.75" y="0">6</tspan></text>
      <text id="_5-2" data-name="5" transform="translate(1185 645)" fill="#0d1117" font-size="15" font-family="GyeonggiBatangB, GyeonggiBatang"><tspan x="-3.75" y="0">5</tspan></text>
      <text id="_3-2" data-name="3" transform="translate(1105 645)" fill="#0d1117" font-size="15" font-family="GyeonggiBatangB, GyeonggiBatang"><tspan x="-3.75" y="0">3</tspan></text>
      <text id="_4-2" data-name="4" transform="translate(1145 645)" fill="#0d1117" font-size="15" font-family="GyeonggiBatangB, GyeonggiBatang"><tspan x="-3.75" y="0">4</tspan></text>
      <text id="_2-2" data-name="2" transform="translate(1065 645)" fill="#0d1117" font-size="15" font-family="GyeonggiBatangB, GyeonggiBatang"><tspan x="-3.75" y="0">2</tspan></text>
      <text id="_1-2" data-name="1" transform="translate(1025 645)" fill="#0d1117" font-size="15" font-family="GyeonggiBatangB, GyeonggiBatang"><tspan x="-3.75" y="0">1</tspan></text>
    </g>
    <text id="_07" data-name="07" transform="translate(1094 791)" fill="#0d1117" font-size="8" font-family="GyeonggiBatangB, GyeonggiBatang"><tspan x="-4" y="0">07</tspan></text>
    <text id="_06" data-name="06" transform="translate(1014 631)" fill="#0d1117" font-size="8" font-family="GyeonggiBatangB, GyeonggiBatang"><tspan x="-4" y="0">06</tspan></text>
  </g>
</svg>
