<svg id="그룹_32" data-name="그룹 32" xmlns="http://www.w3.org/2000/svg" xmlns:xlink="http://www.w3.org/1999/xlink" width="154.5" height="62.619" viewBox="0 0 154.5 62.619">
  <defs>
    <linearGradient id="linear-gradient" x1="0.138" y1="0.388" x2="0.257" y2="0.734" gradientUnits="objectBoundingBox">
      <stop offset="0" stop-color="#7fd8da"/>
      <stop offset="1" stop-color="#ede682"/>
    </linearGradient>
    <filter id="패스_6" x="0" y="2.561" width="57.598" height="60.059" filterUnits="userSpaceOnUse">
      <feOffset dx="3" dy="3" input="SourceAlpha"/>
      <feGaussianBlur stdDeviation="0.5" result="blur"/>
      <feFlood flood-opacity="0.161"/>
      <feComposite operator="in" in2="blur"/>
      <feComposite in="SourceGraphic"/>
    </filter>
    <filter id="패스_7" x="55.982" y="0" width="98.518" height="60.857" filterUnits="userSpaceOnUse">
      <feOffset dx="3" dy="3" input="SourceAlpha"/>
      <feGaussianBlur stdDeviation="0.5" result="blur-2"/>
      <feFlood flood-opacity="0.161"/>
      <feComposite operator="in" in2="blur-2"/>
      <feComposite in="SourceGraphic"/>
    </filter>
  </defs>
  <g transform="matrix(1, 0, 0, 1, 0, 0)" filter="url(#패스_6)">
    <path id="패스_6-2" data-name="패스 6" d="M-54.225,6.953a11.508,11.508,0,0,0,.788,4.231,10.386,10.386,0,0,0,2.364,3.589,11.962,11.962,0,0,0,3.91,2.451,14.723,14.723,0,0,0,5.486.934,14.324,14.324,0,0,0,5.486-.963,10.765,10.765,0,0,0,3.852-2.6,10.429,10.429,0,0,0,2.276-3.589,11.427,11.427,0,0,0,.759-4.056,11.591,11.591,0,0,0-.817-4.289A10.61,10.61,0,0,0-32.515-.984,11.527,11.527,0,0,0-36.4-3.493a13.979,13.979,0,0,0-5.282-.934,15.311,15.311,0,0,0-5.632.934A10.8,10.8,0,0,0-51.19-.984,9.618,9.618,0,0,0-53.5,2.664,12.822,12.822,0,0,0-54.225,6.953ZM-41.035-9.854q2.918-.058,6.011-.117t5.894-.058q2.743,0,4.961.058t3.443.117q.934.117,2.276.35t1.692.292a.948.948,0,0,0,.788-.117,2.606,2.606,0,0,0,.788-.992,1.976,1.976,0,0,0,.263-1.08,1.888,1.888,0,0,0-.729-1.2l-2.393-1.926a1.672,1.672,0,0,0-.729-.321,5.259,5.259,0,0,0-1.021-.088,12.636,12.636,0,0,0-1.371.088q-.788.088-1.722.146-2.1.233-4,.379t-3.939.2q-2.043.117-4.494.233t-5.6.175a.959.959,0,0,0-.233.029.959.959,0,0,1-.233.029h-.409v-10.33a3.425,3.425,0,0,0-.321-1.284q-.321-.759-1.838-.934l-5.953-.584-.175,1.751a1.586,1.586,0,0,0,.263,1.255,1.555,1.555,0,0,0,.9.613,2.357,2.357,0,0,1,1.371.817,3.6,3.6,0,0,1,.263,1.634v7.178H-57q-1.547,0-3.414-.117-1.926-.058-3.793-.2A20.644,20.644,0,0,1-67.3-14.29l-.642,3.327A1.667,1.667,0,0,0-67.881-9.8a1.063,1.063,0,0,0,.759.584,5.937,5.937,0,0,0,1.08.175q.671.058,1.43.058t1.488-.029q.729-.029,1.313-.088Zm15.174-25.095a1.322,1.322,0,0,0-.088-.467,3.29,3.29,0,0,0-.263-.525,2.392,2.392,0,0,0-1.6-.963,5.539,5.539,0,0,0-1.838-.088l-9.8.467q-1.984.117-4.231.175t-3.706,0q-1.926,0-4.844-.175a22.227,22.227,0,0,1-5.194-.875l-.584,2.976a1.673,1.673,0,0,0,.117,1.255,1.64,1.64,0,0,0,1.167.671,9.724,9.724,0,0,0,1.692.263q1.05.088,1.576.088l21.593-.409q-.409,3.093-1.138,6.42t-1.43,5.661a1.576,1.576,0,0,0,.146,1.488,1.944,1.944,0,0,0,1.138.788,2.483,2.483,0,0,0,1.488-.117A2.534,2.534,0,0,0-30.356-19.6a29.566,29.566,0,0,0,1.342-3.181q.642-1.78,1.226-3.647.525-1.809.963-3.56t.729-3.093q.058-.409.146-.934A5.752,5.752,0,0,0-25.862-34.949ZM-41.677.067q3.677,0,5.252,2.072a7.559,7.559,0,0,1,1.576,4.7,8.251,8.251,0,0,1-.379,2.451,6.462,6.462,0,0,1-1.2,2.218,5.7,5.7,0,0,1-2.13,1.576,17.164,17.164,0,0,1-6.3,0,6.262,6.262,0,0,1-2.188-1.576A6.006,6.006,0,0,1-48.3,9.288a8.251,8.251,0,0,1-.379-2.451,7.3,7.3,0,0,1,1.663-4.7Q-45.354.067-41.677.067Z" transform="translate(68.01 39.96)" fill="url(#linear-gradient)"/>
  </g>
  <g transform="matrix(1, 0, 0, 1, 0, 0)" filter="url(#패스_7)">
    <path id="패스_7-2" data-name="패스 7" d="M-40.607-.091a9.365,9.365,0,0,0,.058.963,5.089,5.089,0,0,0,.233,1.08,3.036,3.036,0,0,0,.467.817,1.237,1.237,0,0,0,.875.525,2.96,2.96,0,0,0,1.838-.088A4.081,4.081,0,0,0-36,2.418a3.28,3.28,0,0,0,.5-.7,1.993,1.993,0,0,0,.263-.992V.667L-18.9.551A2.851,2.851,0,0,0-16.972.025a2.013,2.013,0,0,0,.584-1.576V-24.894a11.442,11.442,0,0,0-.321-2.83q-.321-1.255-2.188-1.43l-5.427-.409v1.809A1.4,1.4,0,0,0-24-26.733a2.122,2.122,0,0,0,.846.5,1.953,1.953,0,0,1,1.138.934,5.3,5.3,0,0,1,.263,1.984v6.3l-7.528.175h-1.021a3.41,3.41,0,0,1-1.021-.117l-1.342-.292a.943.943,0,0,0-1.021.2.583.583,0,0,0-.029.788l1.634,2.626a1.268,1.268,0,0,0,.642.642,3.541,3.541,0,0,0,1.05.117l8.637-.233v8.229a1.844,1.844,0,0,1-.263,1.138,1.193,1.193,0,0,1-.963.321l-12.256.233V-23.027a9.756,9.756,0,0,0-.321-2.685Q-35.88-26.82-37.806-27L-43-27.462v1.868a1.437,1.437,0,0,0,.088.554.713.713,0,0,0,.263.321,1.558,1.558,0,0,0,.409.292q.233.117.525.233a1.731,1.731,0,0,1,.934,1.109,9.333,9.333,0,0,1,.175,2.1ZM-5.825,16.249q0,.409.467.5a1.011,1.011,0,0,0,.875-.263,8.9,8.9,0,0,0,1.109-1.021,17.963,17.963,0,0,0,1.4-1.663,10.615,10.615,0,0,0,1.2-2.043,5.52,5.52,0,0,0,.5-2.276v-44.47a3.658,3.658,0,0,0-.263-1.576,3.554,3.554,0,0,0-1.663-1.167l-3.968-1.751a1.166,1.166,0,0,0-1.05.029,2.1,2.1,0,0,0-.759.729,2.129,2.129,0,0,0-.233.963.781.781,0,0,0,.409.729,5.636,5.636,0,0,1,1.517,1.371,3.292,3.292,0,0,1,.467,1.9Zm51.3,0q0,.409.467.5a1.011,1.011,0,0,0,.875-.263,8.9,8.9,0,0,0,1.109-1.021,17.963,17.963,0,0,0,1.4-1.663,10.616,10.616,0,0,0,1.2-2.043,5.519,5.519,0,0,0,.5-2.276v-44.47a3.658,3.658,0,0,0-.263-1.576,3.554,3.554,0,0,0-1.663-1.167l-3.968-1.751a1.166,1.166,0,0,0-1.05.029,2.1,2.1,0,0,0-.759.729,2.129,2.129,0,0,0-.233.963.781.781,0,0,0,.409.729,5.636,5.636,0,0,1,1.517,1.371,3.292,3.292,0,0,1,.467,1.9v15.174l-9.221.35q-.35,0-.963-.029a4.581,4.581,0,0,1-1.021-.146l-1.4-.35a.912.912,0,0,0-1.08.409q-.379.584-.146.934l1.809,2.685a1.268,1.268,0,0,0,.671.642,2.532,2.532,0,0,0,1.138.117l10.213-.525ZM27.207-25.128a7.735,7.735,0,0,0,.058-2.48,1.739,1.739,0,0,0-.817-1.313q-.467-.175-1.226-.438t-1.634-.554q-.875-.233-1.722-.438T20.5-30.73a.619.619,0,0,0-.584.292,2.8,2.8,0,0,0-.467.817,2.072,2.072,0,0,0-.233.934.686.686,0,0,0,.292.642l1.226.817a1.8,1.8,0,0,1,.759.934,3.619,3.619,0,0,1,.117.875,27.14,27.14,0,0,1-2.13,7.762A47.052,47.052,0,0,1,15.652-10.6a43.122,43.122,0,0,1-4.64,5.865,34.8,34.8,0,0,1-4.406,4,2.175,2.175,0,0,0-.379.7,1.715,1.715,0,0,0-.146.875A3.493,3.493,0,0,0,6.723,2.01a1.437,1.437,0,0,0,1.167.584,1.851,1.851,0,0,0,.963-.2,6.151,6.151,0,0,0,.963-.5A17.968,17.968,0,0,0,12.383.054a35.062,35.062,0,0,0,3.21-3.064,48.414,48.414,0,0,0,3.472-4.056,44.581,44.581,0,0,0,3.356-5.048L34.152,1.309a2.824,2.824,0,0,0,1.284.992,1.862,1.862,0,0,0,1.226-.233,1.717,1.717,0,0,0,.9-.7,4.639,4.639,0,0,0-.029-1.751L37.07-2.659a3.965,3.965,0,0,0-.584-1.6,4.677,4.677,0,0,0-1.226-.963q-.467-.292-.9-.554t-.846-.554q-.409-.292-.817-.642a8.088,8.088,0,0,1-.817-.817l-7.7-7.762a39.454,39.454,0,0,0,1.751-4.552A47.272,47.272,0,0,0,27.207-25.128Z" transform="translate(98.98 39.59)" fill="#0d1117"/>
  </g>
</svg>
