<svg xmlns="http://www.w3.org/2000/svg" xmlns:xlink="http://www.w3.org/1999/xlink" width="200.25" height="86.984" viewBox="0 0 200.25 86.984">
  <defs>
    <linearGradient id="linear-gradient" x1="0.138" y1="0.388" x2="0.257" y2="0.734" gradientUnits="objectBoundingBox">
      <stop offset="0" stop-color="#7fd8da"/>
      <stop offset="1" stop-color="#ede682"/>
    </linearGradient>
    <filter id="패스_6" x="0" y="48.93" width="36.523" height="38.054" filterUnits="userSpaceOnUse">
      <feOffset dx="3" dy="3" input="SourceAlpha"/>
      <feGaussianBlur stdDeviation="0.5" result="blur"/>
      <feFlood flood-opacity="0.161"/>
      <feComposite operator="in" in2="blur"/>
      <feComposite in="SourceGraphic"/>
    </filter>
    <filter id="패스_7" x="33.485" y="47.73" width="60.315" height="37.958" filterUnits="userSpaceOnUse">
      <feOffset dx="3" dy="3" input="SourceAlpha"/>
      <feGaussianBlur stdDeviation="0.5" result="blur-2"/>
      <feFlood flood-opacity="0.161"/>
      <feComposite operator="in" in2="blur-2"/>
      <feComposite in="SourceGraphic"/>
    </filter>
  </defs>
  <g id="그룹_104" data-name="그룹 104" transform="translate(-620.808 -500)">
    <g id="그룹_47" data-name="그룹 47" transform="translate(17.203 37.162)">
      <text id="안녕하세요_입니다." data-name="안녕하세요?
           입니다." transform="translate(605.855 462.838)" font-size="30" font-family="GyeonggiBatangB, GyeonggiBatang"><tspan x="0" y="24">안녕하세요?</tspan><tspan x="0" y="74" xml:space="preserve">           입니다.</tspan></text>
    </g>
    <g id="그룹_32" data-name="그룹 32" transform="translate(621.059 547.73)">
      <g transform="matrix(1, 0, 0, 1, -0.25, -47.73)" filter="url(#패스_6)">
        <path id="패스_6-2" data-name="패스 6" d="M-59.828-11.069a6.832,6.832,0,0,0,.468,2.512,6.166,6.166,0,0,0,1.4,2.131,7.1,7.1,0,0,0,2.321,1.455,8.741,8.741,0,0,0,3.257.554,8.5,8.5,0,0,0,3.257-.572A6.391,6.391,0,0,0-46.835-6.53a6.191,6.191,0,0,0,1.351-2.131,6.783,6.783,0,0,0,.45-2.408,6.881,6.881,0,0,0-.485-2.547,6.3,6.3,0,0,0-1.421-2.165,6.843,6.843,0,0,0-2.3-1.49,8.3,8.3,0,0,0-3.136-.554,9.09,9.09,0,0,0-3.343.554,6.414,6.414,0,0,0-2.3,1.49,5.71,5.71,0,0,0-1.369,2.165A7.612,7.612,0,0,0-59.828-11.069ZM-52-21.047l3.569-.069q1.836-.035,3.5-.035,1.628,0,2.945.035t2.044.069q.554.069,1.351.208l1,.173a.563.563,0,0,0,.468-.069,1.547,1.547,0,0,0,.468-.589,1.173,1.173,0,0,0,.156-.641,1.121,1.121,0,0,0-.433-.71l-1.421-1.143a.993.993,0,0,0-.433-.191,3.123,3.123,0,0,0-.606-.052,7.5,7.5,0,0,0-.814.052q-.468.052-1.022.087-1.247.139-2.373.225t-2.339.121q-1.213.069-2.668.139t-3.326.1a.57.57,0,0,0-.139.017.569.569,0,0,1-.139.017h-.243v-6.132a2.033,2.033,0,0,0-.191-.762q-.191-.45-1.091-.554l-3.534-.346-.1,1.039a.941.941,0,0,0,.156.745.923.923,0,0,0,.537.364,1.4,1.4,0,0,1,.814.485,2.14,2.14,0,0,1,.156.97v4.262h-5.769q-.918,0-2.027-.069-1.143-.035-2.252-.121a12.256,12.256,0,0,1-1.836-.26l-.381,1.975a.99.99,0,0,0,.035.693.631.631,0,0,0,.45.346,3.525,3.525,0,0,0,.641.1q.4.035.849.035t.883-.017q.433-.017.78-.052Zm9.008-14.9a.785.785,0,0,0-.052-.277,1.953,1.953,0,0,0-.156-.312,1.42,1.42,0,0,0-.953-.572,3.289,3.289,0,0,0-1.091-.052l-5.821.277q-1.178.069-2.512.1t-2.2,0q-1.143,0-2.876-.1a13.2,13.2,0,0,1-3.084-.52l-.346,1.767a.993.993,0,0,0,.069.745.973.973,0,0,0,.693.4,5.773,5.773,0,0,0,1,.156q.624.052.935.052l12.819-.243q-.243,1.836-.676,3.811t-.849,3.361a.936.936,0,0,0,.087.883A1.154,1.154,0,0,0-47.32-26a1.474,1.474,0,0,0,.883-.069,1.5,1.5,0,0,0,.78-.762,17.554,17.554,0,0,0,.8-1.888q.381-1.057.728-2.165.312-1.074.572-2.113t.433-1.836q.035-.243.087-.554A3.414,3.414,0,0,0-42.99-35.945Zm-9.389,20.788a3.672,3.672,0,0,1,3.118,1.23,4.488,4.488,0,0,1,.935,2.789,4.9,4.9,0,0,1-.225,1.455,3.836,3.836,0,0,1-.71,1.317,3.386,3.386,0,0,1-1.265.935,10.19,10.19,0,0,1-3.742,0,3.718,3.718,0,0,1-1.3-.935,3.565,3.565,0,0,1-.745-1.317,4.9,4.9,0,0,1-.225-1.455,4.336,4.336,0,0,1,.987-2.789A3.827,3.827,0,0,1-52.379-15.157Z" transform="translate(68.26 86.65)" stroke="#fff" stroke-width="0.5" fill="url(#linear-gradient)"/>
      </g>
      <g transform="matrix(1, 0, 0, 1, -0.25, -47.73)" filter="url(#패스_7)">
        <path id="패스_7-2" data-name="패스 7" d="M-41.579-16.143a5.559,5.559,0,0,0,.035.572,3.021,3.021,0,0,0,.139.641,1.8,1.8,0,0,0,.277.485.735.735,0,0,0,.52.312,1.757,1.757,0,0,0,1.091-.052,2.423,2.423,0,0,0,.676-.468,1.947,1.947,0,0,0,.294-.416,1.183,1.183,0,0,0,.156-.589v-.035l9.7-.069a1.692,1.692,0,0,0,1.143-.312,1.2,1.2,0,0,0,.346-.935V-30.867a6.793,6.793,0,0,0-.191-1.68q-.191-.745-1.3-.849l-3.222-.243v1.074a.83.83,0,0,0,.191.606,1.26,1.26,0,0,0,.5.294,1.16,1.16,0,0,1,.676.554,3.143,3.143,0,0,1,.156,1.178v3.742l-4.469.1h-.606a2.024,2.024,0,0,1-.606-.069l-.8-.173a.56.56,0,0,0-.606.121.346.346,0,0,0-.017.468l.97,1.559a.753.753,0,0,0,.381.381,2.1,2.1,0,0,0,.624.069l5.128-.139v4.885a1.1,1.1,0,0,1-.156.676.708.708,0,0,1-.572.191l-7.276.139v-11.78a5.792,5.792,0,0,0-.191-1.594q-.191-.658-1.334-.762L-43-32.392v1.109a.853.853,0,0,0,.052.329.424.424,0,0,0,.156.191.925.925,0,0,0,.243.173q.139.069.312.139a1.028,1.028,0,0,1,.554.658,5.541,5.541,0,0,1,.1,1.247Zm20.649,9.7q0,.243.277.294a.6.6,0,0,0,.52-.156,5.282,5.282,0,0,0,.658-.606,10.664,10.664,0,0,0,.832-.987,6.3,6.3,0,0,0,.71-1.213,3.277,3.277,0,0,0,.294-1.351v-26.4a2.172,2.172,0,0,0-.156-.935,2.11,2.11,0,0,0-.987-.693l-2.356-1.039a.692.692,0,0,0-.624.017,1.244,1.244,0,0,0-.45.433,1.264,1.264,0,0,0-.139.572.464.464,0,0,0,.243.433,3.346,3.346,0,0,1,.9.814,1.955,1.955,0,0,1,.277,1.126Zm30.454,0q0,.243.277.294a.6.6,0,0,0,.52-.156,5.283,5.283,0,0,0,.658-.606,10.664,10.664,0,0,0,.832-.987,6.3,6.3,0,0,0,.71-1.213,3.277,3.277,0,0,0,.294-1.351v-26.4a2.171,2.171,0,0,0-.156-.935,2.11,2.11,0,0,0-.987-.693L9.316-39.529a.692.692,0,0,0-.624.017,1.244,1.244,0,0,0-.45.433,1.264,1.264,0,0,0-.139.572.464.464,0,0,0,.243.433,3.346,3.346,0,0,1,.9.814,1.955,1.955,0,0,1,.277,1.126v9.008l-5.474.208q-.208,0-.572-.017a2.72,2.72,0,0,1-.606-.087l-.832-.208a.542.542,0,0,0-.641.243q-.225.346-.087.554l1.074,1.594a.753.753,0,0,0,.4.381,1.5,1.5,0,0,0,.676.069L9.524-24.7ZM-1.32-31.006a4.592,4.592,0,0,0,.035-1.472,1.032,1.032,0,0,0-.485-.78q-.277-.1-.728-.26t-.97-.329q-.52-.139-1.022-.26t-.814-.225a.367.367,0,0,0-.346.173,1.662,1.662,0,0,0-.277.485,1.23,1.23,0,0,0-.139.554.407.407,0,0,0,.173.381l.728.485a1.065,1.065,0,0,1,.45.554,2.148,2.148,0,0,1,.069.52,16.112,16.112,0,0,1-1.265,4.608A27.933,27.933,0,0,1-8.18-22.379,25.6,25.6,0,0,1-10.935-18.9a20.661,20.661,0,0,1-2.616,2.373,1.291,1.291,0,0,0-.225.416,1.018,1.018,0,0,0-.087.52,2.073,2.073,0,0,0,.381.693.853.853,0,0,0,.693.346,1.1,1.1,0,0,0,.572-.121,3.651,3.651,0,0,0,.572-.294,10.667,10.667,0,0,0,1.524-1.091,20.815,20.815,0,0,0,1.906-1.819,28.742,28.742,0,0,0,2.061-2.408,26.467,26.467,0,0,0,1.992-3L2.8-15.311a1.676,1.676,0,0,0,.762.589,1.105,1.105,0,0,0,.728-.139,1.02,1.02,0,0,0,.537-.416,2.754,2.754,0,0,0-.017-1.039l-.277-1.351a2.354,2.354,0,0,0-.346-.953,2.777,2.777,0,0,0-.728-.572q-.277-.173-.537-.329t-.5-.329q-.243-.173-.485-.381a4.8,4.8,0,0,1-.485-.485l-4.573-4.608a23.422,23.422,0,0,0,1.039-2.7A28.064,28.064,0,0,0-1.32-31.006Z" transform="translate(76.49 87.32)" fill="#0d1117"/>
      </g>
    </g>
  </g>
</svg>
