<svg xmlns="http://www.w3.org/2000/svg" xmlns:xlink="http://www.w3.org/1999/xlink" width="73" height="30.122" viewBox="0 0 73 30.122">
  <defs>
    <linearGradient id="linear-gradient" x1="0.138" y1="0.388" x2="0.257" y2="0.734" gradientUnits="objectBoundingBox">
      <stop offset="0" stop-color="#7fd8da"/>
      <stop offset="1" stop-color="#ede682"/>
    </linearGradient>
    <filter id="패스_6" x="0" y="1.203" width="27.938" height="28.92" filterUnits="userSpaceOnUse">
      <feOffset dx="1" dy="1" input="SourceAlpha"/>
      <feGaussianBlur stdDeviation="0.5" result="blur"/>
      <feFlood flood-opacity="0.161"/>
      <feComposite operator="in" in2="blur"/>
      <feComposite in="SourceGraphic"/>
    </filter>
    <filter id="패스_7" x="25.844" y="0" width="47.156" height="29.295" filterUnits="userSpaceOnUse">
      <feOffset dx="1" dy="1" input="SourceAlpha"/>
      <feGaussianBlur stdDeviation="0.5" result="blur-2"/>
      <feFlood flood-opacity="0.161"/>
      <feComposite operator="in" in2="blur-2"/>
      <feComposite in="SourceGraphic"/>
    </filter>
  </defs>
  <g id="그룹_32" data-name="그룹 32" transform="translate(0.5 0.5)">
    <g transform="matrix(1, 0, 0, 1, -0.5, -0.5)" filter="url(#패스_6)">
      <path id="패스_6-2" data-name="패스 6" d="M-61.538-16.708a5.337,5.337,0,0,0,.37,1.974,4.843,4.843,0,0,0,1.11,1.674,5.624,5.624,0,0,0,1.836,1.144,6.956,6.956,0,0,0,2.576.436,6.768,6.768,0,0,0,2.576-.449,5.058,5.058,0,0,0,1.809-1.212,4.861,4.861,0,0,0,1.069-1.674,5.3,5.3,0,0,0,.356-1.892,5.376,5.376,0,0,0-.384-2,4.947,4.947,0,0,0-1.124-1.7,5.418,5.418,0,0,0-1.823-1.171,6.6,6.6,0,0,0-2.481-.436,7.235,7.235,0,0,0-2.645.436,5.078,5.078,0,0,0-1.823,1.171,4.483,4.483,0,0,0-1.083,1.7A5.946,5.946,0,0,0-61.538-16.708Zm6.194-7.841,2.823-.054q1.453-.027,2.768-.027,1.288,0,2.33.027t1.617.054q.439.054,1.069.163l.795.136a.448.448,0,0,0,.37-.054,1.217,1.217,0,0,0,.37-.463.917.917,0,0,0,.123-.5.879.879,0,0,0-.343-.558l-1.124-.9a.788.788,0,0,0-.343-.15,2.487,2.487,0,0,0-.48-.041,5.975,5.975,0,0,0-.644.041q-.37.041-.809.068-.987.109-1.878.177t-1.85.1q-.959.054-2.111.109t-2.631.082a.454.454,0,0,0-.11.014.454.454,0,0,1-.11.014H-55.7v-4.819a1.589,1.589,0,0,0-.151-.6q-.151-.354-.863-.436l-2.8-.272-.082.817a.736.736,0,0,0,.123.585.73.73,0,0,0,.425.286,1.108,1.108,0,0,1,.644.381,1.672,1.672,0,0,1,.123.762v3.349H-62.84q-.726,0-1.6-.054-.9-.027-1.782-.1a9.758,9.758,0,0,1-1.453-.2l-.3,1.552a.773.773,0,0,0,.027.545.5.5,0,0,0,.356.272,2.806,2.806,0,0,0,.507.082q.315.027.672.027t.7-.014q.343-.014.617-.041Zm7.126-11.707a.613.613,0,0,0-.041-.218,1.53,1.53,0,0,0-.123-.245,1.125,1.125,0,0,0-.754-.449A2.619,2.619,0,0,0-50-37.209l-4.6.218q-.932.054-1.987.082t-1.74,0q-.9,0-2.275-.082a10.5,10.5,0,0,1-2.439-.408l-.274,1.389a.776.776,0,0,0,.055.585.771.771,0,0,0,.548.313,4.6,4.6,0,0,0,.795.123q.493.041.74.041l10.141-.191q-.192,1.443-.534,2.995t-.672,2.641a.731.731,0,0,0,.069.694.913.913,0,0,0,.534.368,1.173,1.173,0,0,0,.7-.054,1.187,1.187,0,0,0,.617-.6,13.741,13.741,0,0,0,.63-1.484q.3-.83.576-1.7.247-.844.452-1.661t.343-1.443q.027-.191.069-.436A2.667,2.667,0,0,0-48.217-36.256Zm-7.428,16.336a2.915,2.915,0,0,1,2.467.967,3.511,3.511,0,0,1,.74,2.192,3.826,3.826,0,0,1-.178,1.144,3.008,3.008,0,0,1-.562,1.035,2.678,2.678,0,0,1-1,.735,8.114,8.114,0,0,1-2.96,0,2.941,2.941,0,0,1-1.028-.735,2.8,2.8,0,0,1-.589-1.035,3.826,3.826,0,0,1-.178-1.144,3.393,3.393,0,0,1,.781-2.192A3.038,3.038,0,0,1-55.645-19.921Z" transform="translate(68.51 39.1)" fill="url(#linear-gradient)"/>
    </g>
    <g transform="matrix(1, 0, 0, 1, -0.5, -0.5)" filter="url(#패스_7)">
      <path id="패스_7-2" data-name="패스 7" d="M-41.876-21.163a4.341,4.341,0,0,0,.027.449,2.361,2.361,0,0,0,.11.5,1.414,1.414,0,0,0,.219.381.582.582,0,0,0,.411.245,1.4,1.4,0,0,0,.863-.041,1.917,1.917,0,0,0,.534-.368,1.531,1.531,0,0,0,.233-.327.925.925,0,0,0,.123-.463v-.027l7.675-.054a1.345,1.345,0,0,0,.9-.245.936.936,0,0,0,.274-.735V-32.736a5.305,5.305,0,0,0-.151-1.321q-.151-.585-1.028-.667l-2.549-.191v.844a.649.649,0,0,0,.151.477,1,1,0,0,0,.4.231.916.916,0,0,1,.534.436,2.455,2.455,0,0,1,.123.926v2.941l-3.536.082h-.48a1.612,1.612,0,0,1-.48-.054l-.63-.136a.445.445,0,0,0-.48.1.271.271,0,0,0-.014.368l.767,1.225a.594.594,0,0,0,.3.3,1.673,1.673,0,0,0,.493.054l4.057-.109V-23.4a.856.856,0,0,1-.123.531.563.563,0,0,1-.452.15l-5.756.109v-9.258a4.523,4.523,0,0,0-.151-1.253q-.151-.517-1.055-.6L-43-33.934v.871a.666.666,0,0,0,.041.259.333.333,0,0,0,.123.15.731.731,0,0,0,.192.136q.11.054.247.109a.809.809,0,0,1,.439.517,4.327,4.327,0,0,1,.082.98Zm16.336,7.624q0,.191.219.231a.477.477,0,0,0,.411-.123,4.17,4.17,0,0,0,.521-.477,8.4,8.4,0,0,0,.658-.776,4.946,4.946,0,0,0,.562-.953,2.561,2.561,0,0,0,.233-1.062V-37.446a1.7,1.7,0,0,0-.123-.735,1.668,1.668,0,0,0-.781-.545l-1.864-.817a.551.551,0,0,0-.493.014.981.981,0,0,0-.356.34.988.988,0,0,0-.11.449.364.364,0,0,0,.192.34,2.641,2.641,0,0,1,.713.64,1.528,1.528,0,0,1,.219.885Zm24.093,0q0,.191.219.231a.477.477,0,0,0,.411-.123A4.17,4.17,0,0,0-.3-13.907a8.4,8.4,0,0,0,.658-.776,4.946,4.946,0,0,0,.562-.953A2.561,2.561,0,0,0,1.156-16.7V-37.446a1.7,1.7,0,0,0-.123-.735,1.668,1.668,0,0,0-.781-.545l-1.864-.817a.551.551,0,0,0-.493.014.981.981,0,0,0-.356.34.988.988,0,0,0-.11.449.364.364,0,0,0,.192.34,2.64,2.64,0,0,1,.713.64,1.528,1.528,0,0,1,.219.885v7.08l-4.331.163q-.164,0-.452-.014a2.165,2.165,0,0,1-.48-.068l-.658-.163a.43.43,0,0,0-.507.191q-.178.272-.069.436L-7.094-28a.594.594,0,0,0,.315.3,1.2,1.2,0,0,0,.534.054l4.8-.245Zm-8.579-19.305A3.585,3.585,0,0,0-10-34a.811.811,0,0,0-.384-.613q-.219-.082-.576-.2t-.767-.259q-.411-.109-.809-.2t-.644-.177a.291.291,0,0,0-.274.136,1.3,1.3,0,0,0-.219.381.962.962,0,0,0-.11.436.319.319,0,0,0,.137.3l.576.381a.838.838,0,0,1,.356.436,1.678,1.678,0,0,1,.055.408,12.6,12.6,0,0,1-1,3.621,21.908,21.908,0,0,1-1.8,3.295,20.141,20.141,0,0,1-2.179,2.737A16.308,16.308,0,0,1-19.7-21.463a1.013,1.013,0,0,0-.178.327.8.8,0,0,0-.069.408,1.626,1.626,0,0,0,.3.545.677.677,0,0,0,.548.272.874.874,0,0,0,.452-.1,2.9,2.9,0,0,0,.452-.231,8.438,8.438,0,0,0,1.206-.858,16.42,16.42,0,0,0,1.508-1.43,22.628,22.628,0,0,0,1.631-1.892,20.79,20.79,0,0,0,1.576-2.355l5.509,6.263a1.326,1.326,0,0,0,.6.463.879.879,0,0,0,.576-.109.805.805,0,0,0,.425-.327,2.15,2.15,0,0,0-.014-.817l-.219-1.062a1.842,1.842,0,0,0-.274-.749,2.194,2.194,0,0,0-.576-.449q-.219-.136-.425-.259t-.4-.259q-.192-.136-.384-.3a3.785,3.785,0,0,1-.384-.381l-3.618-3.621A18.336,18.336,0,0,0-10.63-30.5,21.938,21.938,0,0,0-10.027-32.845Z" transform="translate(69.34 40.09)" fill="#0d1117"/>
    </g>
  </g>
</svg>
