<svg xmlns="http://www.w3.org/2000/svg" xmlns:xlink="http://www.w3.org/1999/xlink" width="169" height="129" viewBox="0 0 169 129">
  <defs>
    <linearGradient id="linear-gradient" x1="0.269" y1="0.351" x2="0.835" y2="0.865" gradientUnits="objectBoundingBox">
      <stop offset="0" stop-color="#7fd8da"/>
      <stop offset="1" stop-color="#ede682"/>
    </linearGradient>
    <linearGradient id="linear-gradient-2" x1="0.268" y1="0.353" x2="0.835" y2="0.865" xlink:href="#linear-gradient"/>
    <filter id="패스_4" x="0" y="0" width="169" height="129" filterUnits="userSpaceOnUse">
      <feOffset dx="3" dy="3" input="SourceAlpha"/>
      <feGaussianBlur stdDeviation="1.5" result="blur"/>
      <feFlood flood-opacity="0.161"/>
      <feComposite operator="in" in2="blur"/>
      <feComposite in="SourceGraphic"/>
    </filter>
  </defs>
  <g id="그룹_163" data-name="그룹 163" transform="translate(-38.5 -38.5)">
    <g id="그룹_162" data-name="그룹 162">
      <g id="그룹_64" data-name="그룹 64" transform="translate(-1232 -690.25)">
        <path id="패스_4-2" data-name="패스 4" d="M80,0c44.183,0,80,26.863,80,60s-35.817,60-80,60S0,93.137,0,60,35.817,0,80,0Z" transform="translate(1272 730.25)" fill="url(#linear-gradient)"/>
        <g transform="matrix(1, 0, 0, 1, 1270.5, 728.75)" filter="url(#패스_4)">
          <path id="패스_4-3" data-name="패스 4" d="M80,0c44.183,0,80,26.863,80,60,0,14.534-6.89,27.86-18.536,38.386V120l-25.315-6.46A101.593,101.593,0,0,1,80,120C35.817,120,0,93.137,0,60S35.817,0,80,0Z" transform="translate(1.5 1.5)" fill="url(#linear-gradient-2)"/>
        </g>
        <path id="패스_100" data-name="패스 100" d="M-26,.108A2.115,2.115,0,0,0-25.818,1,2.116,2.116,0,0,0-25.3,1.7a2.4,2.4,0,0,0,.786.456,2.911,2.911,0,0,0,1,.168,2.74,2.74,0,0,0,.966-.168,2.583,2.583,0,0,0,.786-.456A2.275,2.275,0,0,0-21.24,1a2.059,2.059,0,0,0,.192-.888,2.128,2.128,0,0,0-.2-.93,2.113,2.113,0,0,0-.534-.7,2.4,2.4,0,0,0-.786-.444,2.855,2.855,0,0,0-.942-.156A2.687,2.687,0,0,0-25.3-1.53,2.023,2.023,0,0,0-26,.108Zm4.32-3.576h1.224q.348,0,.666.012t.546.024l.756.12a.118.118,0,0,0,.132-.042.613.613,0,0,0,.1-.138.178.178,0,0,0,.012-.114.311.311,0,0,0-.1-.15l-.4-.36a.535.535,0,0,0-.342-.078q-.234.006-.606.042-.072.012-.288.024t-.48.036q-.276.012-.546.03t-.45.018l-2.148.072V-6.2a.7.7,0,0,0-.066-.264q-.066-.156-.354-.192l-.756-.072L-24.8-6.5a.235.235,0,0,0,.048.216.356.356,0,0,0,.168.1.306.306,0,0,1,.216.168,1.147,1.147,0,0,1,.036.336v1.74q-.48.012-1,.018t-1.056-.006q-.108,0-.408-.006t-.66-.018q-.36-.024-.72-.054a3.532,3.532,0,0,1-.588-.09l-.084.408a.391.391,0,0,0,.006.246q.042.1.114.114a.573.573,0,0,0,.2.048q.126.012.258.012t.282-.006q.138-.006.246-.018l1.356-.048Zm-1.824,2.016A1.65,1.65,0,0,1-22.242-1a1.559,1.559,0,0,1,.426,1.1,1.6,1.6,0,0,1-.408,1.08,1.617,1.617,0,0,1-1.284.468,1.683,1.683,0,0,1-1.29-.468,1.534,1.534,0,0,1-.438-1.08A1.547,1.547,0,0,1-24.8-1,1.7,1.7,0,0,1-23.508-1.452Zm3.1-7.02a.285.285,0,0,0-.012-.078.277.277,0,0,0-.036-.078.358.358,0,0,0-.252-.162.66.66,0,0,0-.264-.006l-1.464.072q-.036,0-.282.012t-.57.024q-.324,0-.672.012t-.588.012q-.18.012-.462.006t-.582-.018q-.312-.024-.6-.06a2.38,2.38,0,0,1-.492-.108l-.1.456a.308.308,0,0,0-.006.2.134.134,0,0,0,.114.09,1.882,1.882,0,0,0,.336.048q.192.012.3.012.216,0,.414.006t.39.006h.384q.192,0,.408-.012l1.392-.042.636-.018,1.176-.012q-.072.624-.222,1.4t-.33,1.422a.2.2,0,0,0,.018.186.248.248,0,0,0,.138.1.28.28,0,0,0,.186-.018.319.319,0,0,0,.162-.162,4.051,4.051,0,0,0,.228-.576q.132-.4.264-.852t.222-.864a5.166,5.166,0,0,0,.126-.66.736.736,0,0,1,.006-.1.554.554,0,0,0,.006-.078.337.337,0,0,1,.006-.066ZM-11.7-4.38a1.925,1.925,0,0,0,.012.2,1.046,1.046,0,0,0,.048.222.286.286,0,0,0,.066.114.212.212,0,0,0,.078.054.217.217,0,0,0,.174.03.413.413,0,0,0,.21-.1A.421.421,0,0,0-11.01-4a.444.444,0,0,0,.054-.21V-4.26l4.248-.024a.586.586,0,0,0,.4-.108.414.414,0,0,0,.12-.324v-3.4a2.006,2.006,0,0,0-.066-.552q-.066-.228-.45-.264l-.672-.06v.168a.666.666,0,0,0,.024.21.191.191,0,0,0,.132.1.4.4,0,0,1,.234.192,1.089,1.089,0,0,1,.054.408v.924l-2.76.036h-.21a.7.7,0,0,1-.21-.024l-.276-.06a.2.2,0,0,0-.216.048.1.1,0,0,0,0,.156l.252.336a.39.39,0,0,0,.138.126.541.541,0,0,0,.21.03l3.072-.036v1.164a.379.379,0,0,1-.054.234.245.245,0,0,1-.2.066l-3.768.048V-7.668a1.941,1.941,0,0,0-.066-.546q-.066-.222-.462-.27l-.66-.072v.18a.5.5,0,0,0,.024.192.274.274,0,0,0,.144.1.478.478,0,0,1,.216.21,1.035,1.035,0,0,1,.06.414Zm4.536,2.052H-5.94q.348,0,.666.012t.546.036l.756.12A.118.118,0,0,0-3.84-2.2a.613.613,0,0,0,.1-.138.178.178,0,0,0,.012-.114.311.311,0,0,0-.1-.15l-.4-.36a.558.558,0,0,0-.342-.084q-.234,0-.606.036-.072.012-.288.024t-.48.036q-.276.012-.546.03t-.45.018q-.48.012-1.026.03t-1.158.03q-.624.024-1.308.03t-1.44-.006q-.108,0-.408-.006t-.66-.03q-.36-.024-.72-.054A3.532,3.532,0,0,1-14.244-3l-.084.408a.391.391,0,0,0,.006.246q.042.1.114.114a.573.573,0,0,0,.2.048q.126.012.258.012t.282-.006q.138-.006.246-.018l1.356-.036,2.3-.048a1.72,1.72,0,0,1,.258.294.86.86,0,0,1,.1.474V1.92q0,.084.114.1a.149.149,0,0,0,.162-.054q.036-.048.114-.174a2.63,2.63,0,0,0,.15-.282,2.067,2.067,0,0,0,.144-.3A.783.783,0,0,0-8.46.936v-2.58A1.481,1.481,0,0,0-8.5-2a.478.478,0,0,0-.258-.288Zm8.22-2.664a1.761,1.761,0,0,0,.612,1.35,2.364,2.364,0,0,0,1.656.558,2.291,2.291,0,0,0,1.632-.552,1.787,1.787,0,0,0,.588-1.356A1.717,1.717,0,0,0,4.92-6.378a2.4,2.4,0,0,0-1.6-.522,2.468,2.468,0,0,0-1.656.522A1.731,1.731,0,0,0,1.056-4.992ZM5.184-1.716,7.248-1.74a.4.4,0,0,1,.2.03q.036.03.036.2v.636a.3.3,0,0,1-.054.216.3.3,0,0,1-.2.048l-4.164.06h-.06a.107.107,0,0,1-.048-.012l-.708-.06v.216a.4.4,0,0,0,.072.234.421.421,0,0,0,.192.15.52.52,0,0,1,.132.1A.357.357,0,0,1,2.724.2q.012.084.018.18T2.748.6v.66a.652.652,0,0,0,.1.384.641.641,0,0,0,.258.216,1.03,1.03,0,0,0,.324.09,2.941,2.941,0,0,0,.312.018h4.62A.533.533,0,0,0,8.6,1.932q.066-.036.1-.24a.316.316,0,0,0-.006-.228.53.53,0,0,0-.222-.132l-.42-.168a.982.982,0,0,0-.2-.042.654.654,0,0,0-.21.03,5.363,5.363,0,0,1-.672.12,7.56,7.56,0,0,1-.984.06H3.78q-.216,0-.252-.1A.927.927,0,0,1,3.492.936V.48q0-.12-.006-.222T3.48.06L7.692.024a.662.662,0,0,0,.414-.1A.385.385,0,0,0,8.232-.4V-2a.542.542,0,0,0-.03-.21.346.346,0,0,0-.066-.1.269.269,0,0,0-.144-.066.98.98,0,0,0-.18-.018l-2.688.06q-.216.012-.528.012T3.924-2.34q-.36,0-.744-.03t-.732-.09l-.084.468a.186.186,0,0,0,.024.162.31.31,0,0,0,.132.1.768.768,0,0,0,.318.066,2.322,2.322,0,0,0,.306-.006q.132,0,.282-.012t.294-.012ZM3.324-6.252a1.607,1.607,0,0,1,1.1.342A1.154,1.154,0,0,1,4.812-5a1.191,1.191,0,0,1-.384.918,1.572,1.572,0,0,1-1.1.354,1.646,1.646,0,0,1-1.116-.354A1.159,1.159,0,0,1,1.8-5a1.131,1.131,0,0,1,.4-.906A1.679,1.679,0,0,1,3.324-6.252ZM8.436-8.544a.71.71,0,0,0-.054-.318A.748.748,0,0,0,8.064-9.1l-.528-.24q-.156-.072-.252.108t.024.276a1.837,1.837,0,0,1,.276.288.6.6,0,0,1,.108.372v5.3q0,.084.1.1a.131.131,0,0,0,.15-.066q.036-.048.12-.174A1.828,1.828,0,0,0,8.22-3.42a3.134,3.134,0,0,0,.15-.354,1.09,1.09,0,0,0,.066-.366v-1.3h1.5l.168.006q.132.006.228.018a.343.343,0,0,0,.21.006.28.28,0,0,0,.162-.126l.072-.084a.191.191,0,0,0,.054-.168.23.23,0,0,0-.114-.144l-.432-.252a.634.634,0,0,0-.162-.06.4.4,0,0,0-.138,0,.392.392,0,0,0-.138.03,1.323,1.323,0,0,1-.186.054,4.386,4.386,0,0,1-.426.108,1.873,1.873,0,0,1-.318.024L8.436-6ZM3.348-7.44l.57-.024L4.5-7.488q.288,0,.57.006t.558.018q.084.012.18.03t.18.042a1.546,1.546,0,0,1,.156.03q.072.018.132.03a.21.21,0,0,0,.162-.012.492.492,0,0,0,.126-.18.349.349,0,0,0,.054-.216.465.465,0,0,0-.162-.192l-.3-.18a.674.674,0,0,0-.264-.078,4.787,4.787,0,0,0-.516.03,4.407,4.407,0,0,1-.636.078q-.516.042-1.056.066v-.852a.987.987,0,0,0-.048-.342q-.048-.126-.324-.222l-.456-.144q-.108-.024-.174.12t.006.2a.948.948,0,0,1,.2.24.866.866,0,0,1,.048.348v.672q-.3.012-.57.012t-.558-.012q-.4,0-.822-.024a6.041,6.041,0,0,1-.846-.108l-.06.444a.349.349,0,0,0-.006.168.206.206,0,0,0,.09.108.638.638,0,0,0,.294.09,3.553,3.553,0,0,0,.474.006q.552-.036,1.194-.066T3.348-7.44Zm18.6-.312a.746.746,0,0,0-.054-.33.748.748,0,0,0-.318-.234l-.528-.24q-.156-.072-.252.108t.024.276l.144.144q.072.072.132.144a.823.823,0,0,1,.084.168.612.612,0,0,1,.036.216v6.18q0,.072.1.09a.153.153,0,0,0,.156-.054q.036-.048.114-.174t.162-.294q.072-.168.138-.354a1.09,1.09,0,0,0,.066-.366V-4.764H23.28V-.756q0,.072.1.09a.153.153,0,0,0,.156-.054q.036-.048.114-.174t.162-.294a3.135,3.135,0,0,0,.15-.354,1.09,1.09,0,0,0,.066-.366V-8.544a.71.71,0,0,0-.054-.318.755.755,0,0,0-.33-.234l-.516-.24q-.156-.072-.258.108t.03.276a1.837,1.837,0,0,1,.276.288.6.6,0,0,1,.108.372v2.916H21.948Zm1.944,9.564a.533.533,0,0,0,.234-.036q.066-.036.114-.216a.288.288,0,0,0-.012-.228A.6.6,0,0,0,24,1.2l-.468-.192a.489.489,0,0,0-.21-.042,1.168,1.168,0,0,0-.222.042,4.968,4.968,0,0,1-.7.114,11.356,11.356,0,0,1-1.218.054h-1.9q-.216,0-.252-.09A.813.813,0,0,1,19,.8V-.708q0-.156-.012-.3a.777.777,0,0,0-.06-.252.42.42,0,0,0-.156-.18.815.815,0,0,0-.3-.108l-.744-.084v.312a.245.245,0,0,0,.066.2.681.681,0,0,0,.21.1.355.355,0,0,1,.216.222,1.629,1.629,0,0,1,.036.39V1.116a.753.753,0,0,0,.084.39.572.572,0,0,0,.216.21.708.708,0,0,0,.288.084q.156.012.3.012Zm-5.88-5.244a.445.445,0,0,0,.174.306.484.484,0,0,0,.282.162,4.144,4.144,0,0,0,1.242-.2,5.046,5.046,0,0,0,.93-.4q.288-.168.246-.288a.319.319,0,0,0-.15-.18.766.766,0,0,0-.2-.03.573.573,0,0,0-.162.006,4.819,4.819,0,0,1-.72.258,2.9,2.9,0,0,1-.78.114.142.142,0,0,1-.09-.024.12.12,0,0,1-.03-.1V-6.4a.987.987,0,0,0-.012-.15.987.987,0,0,1-.012-.15H19.86a.794.794,0,0,0,.2-.03.3.3,0,0,0,.186-.186.19.19,0,0,0,.018-.138q-.018-.066-.2-.174l-.216-.132a.672.672,0,0,0-.162-.048.75.75,0,0,0-.222.012,2.833,2.833,0,0,1-.456.084Q18.84-7.3,18.6-7.3h-.492l-.48-.06v.216a.847.847,0,0,1-.006.114.113.113,0,0,0,.006.066.116.116,0,0,0,.048.06,1.067,1.067,0,0,0,.108.06.334.334,0,0,1,.192.174,1.642,1.642,0,0,1,.036.438ZM16.14-6.372q0-.072-.006-.15t-.018-.15h.948a.727.727,0,0,0,.192-.03q.108-.03.18-.21a.177.177,0,0,0,.018-.132q-.018-.06-.2-.18l-.216-.132a.505.505,0,0,0-.15-.048.75.75,0,0,0-.222.012,4.174,4.174,0,0,1-.528.1,4.353,4.353,0,0,1-.456.024H15.5l-.528-.06v.216A.847.847,0,0,1,14.97-7a.168.168,0,0,0,.006.078.185.185,0,0,0,.048.054.337.337,0,0,0,.108.054.341.341,0,0,1,.222.216,1.474,1.474,0,0,1,.042.4v2.916a.461.461,0,0,0,.186.324.522.522,0,0,0,.306.168q.072,0,.186-.006a1.723,1.723,0,0,0,.186-.018,3.339,3.339,0,0,0,.846-.168,5.121,5.121,0,0,0,.522-.2q.18-.1.168-.2a.283.283,0,0,0-.12-.192.684.684,0,0,0-.192-.072.38.38,0,0,0-.156-.012,6.286,6.286,0,0,1-.612.156,2.458,2.458,0,0,1-.456.048.159.159,0,0,1-.078-.024.1.1,0,0,1-.042-.1Zm12,6.444a.96.96,0,0,0-.24-.708.772.772,0,0,0-.564-.24.656.656,0,0,0-.51.2.737.737,0,0,0-.186.516.486.486,0,0,0,.12.366A1.089,1.089,0,0,0,27.024.4q.144.072.27.144a.244.244,0,0,1,.126.228,1.219,1.219,0,0,1-.066.372,2.051,2.051,0,0,1-.186.408,1.845,1.845,0,0,1-.33.36,1.327,1.327,0,0,1-.462.252l.192.336a2.3,2.3,0,0,0,.75-.42,2.1,2.1,0,0,0,.486-.6,2.475,2.475,0,0,0,.258-.69A3.421,3.421,0,0,0,28.14.072Z" transform="translate(1352 761.816)" fill="#fff"/>
        <g id="그룹_63" data-name="그룹 63" transform="translate(1299 773.671)">
          <path id="패스_99" data-name="패스 99" d="M-43.836.468A7.69,7.69,0,0,0-43.31,3.3a6.941,6.941,0,0,0,1.58,2.4,7.994,7.994,0,0,0,2.613,1.638,9.839,9.839,0,0,0,3.666.624,9.573,9.573,0,0,0,3.666-.643,7.194,7.194,0,0,0,2.574-1.736,6.97,6.97,0,0,0,1.521-2.4,7.636,7.636,0,0,0,.507-2.71A7.746,7.746,0,0,0-27.729-2.4a7.09,7.09,0,0,0-1.6-2.438,7.7,7.7,0,0,0-2.594-1.677,9.342,9.342,0,0,0-3.53-.624,10.232,10.232,0,0,0-3.764.624,7.22,7.22,0,0,0-2.593,1.677A6.427,6.427,0,0,0-43.348-2.4,8.568,8.568,0,0,0-43.836.468Zm8.814-11.232L-31-10.842q2.067-.039,3.939-.039,1.833,0,3.315.039t2.3.078q.624.078,1.521.234l1.131.195a.634.634,0,0,0,.526-.078,1.742,1.742,0,0,0,.527-.663,1.32,1.32,0,0,0,.175-.722,1.261,1.261,0,0,0-.487-.8l-1.6-1.287a1.117,1.117,0,0,0-.487-.215,3.515,3.515,0,0,0-.683-.058,8.445,8.445,0,0,0-.916.058q-.527.059-1.15.1-1.4.156-2.672.254t-2.632.137q-1.365.078-3,.156t-3.744.117a.641.641,0,0,0-.156.019.641.641,0,0,1-.156.019h-.273v-6.9a2.288,2.288,0,0,0-.215-.858q-.215-.507-1.229-.624l-3.978-.39-.117,1.17a1.06,1.06,0,0,0,.175.839,1.039,1.039,0,0,0,.6.41,1.575,1.575,0,0,1,.917.546,2.409,2.409,0,0,1,.175,1.092v4.8h-6.493q-1.033,0-2.282-.078-1.287-.039-2.535-.136a13.8,13.8,0,0,1-2.067-.293L-53-11.505a1.114,1.114,0,0,0,.039.78.71.71,0,0,0,.507.39,3.968,3.968,0,0,0,.722.117q.448.039.956.039t.994-.019q.488-.02.878-.059Zm10.14-16.77a.883.883,0,0,0-.059-.312,2.2,2.2,0,0,0-.176-.351,1.6,1.6,0,0,0-1.073-.643,3.7,3.7,0,0,0-1.228-.059l-6.552.312q-1.326.078-2.827.117t-2.476,0q-1.287,0-3.237-.117a14.854,14.854,0,0,1-3.471-.585l-.39,1.989a1.118,1.118,0,0,0,.078.838,1.1,1.1,0,0,0,.78.448,6.5,6.5,0,0,0,1.131.176q.7.059,1.053.058l14.43-.273q-.273,2.067-.76,4.29t-.955,3.783a1.053,1.053,0,0,0,.1.994,1.3,1.3,0,0,0,.76.527,1.659,1.659,0,0,0,.994-.078,1.694,1.694,0,0,0,.878-.858,19.759,19.759,0,0,0,.9-2.126q.429-1.189.819-2.437.351-1.209.644-2.379t.487-2.067q.039-.273.1-.624A3.843,3.843,0,0,0-24.882-27.534Zm-10.569,23.4a4.134,4.134,0,0,1,3.51,1.385A5.052,5.052,0,0,1-30.888.39a5.514,5.514,0,0,1-.253,1.638,4.318,4.318,0,0,1-.8,1.482,3.812,3.812,0,0,1-1.424,1.053,5.109,5.109,0,0,1-2.086.39,5.216,5.216,0,0,1-2.125-.39A4.185,4.185,0,0,1-39.039,3.51a4.013,4.013,0,0,1-.838-1.482A5.514,5.514,0,0,1-40.131.39,4.881,4.881,0,0,1-39.02-2.75,4.308,4.308,0,0,1-35.451-4.134Zm21.84-.351a6.258,6.258,0,0,0,.039.643,3.4,3.4,0,0,0,.156.722,2.029,2.029,0,0,0,.312.546.827.827,0,0,0,.585.351,1.978,1.978,0,0,0,1.228-.059,2.727,2.727,0,0,0,.76-.526,2.192,2.192,0,0,0,.332-.468,1.332,1.332,0,0,0,.175-.663v-.039L.9-4.056a1.9,1.9,0,0,0,1.287-.351,1.345,1.345,0,0,0,.39-1.053v-15.6a7.646,7.646,0,0,0-.215-1.891Q2.145-23.79.9-23.907L-2.73-24.18v1.209a.934.934,0,0,0,.214.683,1.418,1.418,0,0,0,.566.331,1.305,1.305,0,0,1,.76.624,3.538,3.538,0,0,1,.175,1.326V-15.8l-5.031.117h-.682a2.279,2.279,0,0,1-.682-.078l-.9-.195a.63.63,0,0,0-.682.136.39.39,0,0,0-.019.526l1.092,1.755a.847.847,0,0,0,.429.429,2.366,2.366,0,0,0,.7.078l5.772-.156v5.5a1.232,1.232,0,0,1-.175.76.8.8,0,0,1-.644.215l-8.19.156v-13.26a6.52,6.52,0,0,0-.214-1.794q-.215-.741-1.5-.858l-3.471-.312v1.248a.96.96,0,0,0,.058.371.477.477,0,0,0,.176.215,1.041,1.041,0,0,0,.273.195q.156.078.351.156a1.157,1.157,0,0,1,.624.741,6.237,6.237,0,0,1,.117,1.4ZM9.633,6.435q0,.273.312.331a.676.676,0,0,0,.585-.175,5.946,5.946,0,0,0,.741-.683A12,12,0,0,0,12.207,4.8a7.094,7.094,0,0,0,.8-1.365,3.689,3.689,0,0,0,.331-1.521V-27.807a2.444,2.444,0,0,0-.175-1.053,2.375,2.375,0,0,0-1.111-.78L9.4-30.81a.779.779,0,0,0-.7.019,1.4,1.4,0,0,0-.507.488,1.423,1.423,0,0,0-.156.643.522.522,0,0,0,.273.487,3.767,3.767,0,0,1,1.014.916,2.2,2.2,0,0,1,.312,1.268Zm34.281,0q0,.273.312.331a.676.676,0,0,0,.585-.175,5.946,5.946,0,0,0,.741-.683A12,12,0,0,0,46.488,4.8a7.094,7.094,0,0,0,.8-1.365,3.689,3.689,0,0,0,.332-1.521V-27.807a2.444,2.444,0,0,0-.175-1.053,2.375,2.375,0,0,0-1.111-.78L43.68-30.81a.779.779,0,0,0-.7.019,1.4,1.4,0,0,0-.507.488,1.423,1.423,0,0,0-.156.643.522.522,0,0,0,.273.487,3.766,3.766,0,0,1,1.014.916,2.2,2.2,0,0,1,.312,1.268v10.14l-6.162.234q-.234,0-.643-.02a3.061,3.061,0,0,1-.683-.1l-.936-.234a.61.61,0,0,0-.722.273q-.253.39-.1.624l1.209,1.794a.847.847,0,0,0,.448.429,1.692,1.692,0,0,0,.761.078l6.825-.351ZM31.707-21.216a5.169,5.169,0,0,0,.039-1.658,1.162,1.162,0,0,0-.546-.877q-.312-.117-.819-.292t-1.092-.371q-.585-.156-1.15-.292t-.917-.253a.413.413,0,0,0-.39.195,1.87,1.87,0,0,0-.312.546,1.385,1.385,0,0,0-.156.624.458.458,0,0,0,.195.429l.819.546a1.2,1.2,0,0,1,.507.624,2.418,2.418,0,0,1,.078.585,18.137,18.137,0,0,1-1.424,5.187,31.443,31.443,0,0,1-2.554,4.719,28.817,28.817,0,0,1-3.1,3.92A23.258,23.258,0,0,1,17.94-4.914a1.453,1.453,0,0,0-.253.468,1.146,1.146,0,0,0-.1.585,2.334,2.334,0,0,0,.429.78.96.96,0,0,0,.78.39,1.237,1.237,0,0,0,.643-.136,4.11,4.11,0,0,0,.644-.331A12.008,12.008,0,0,0,21.8-4.388a23.43,23.43,0,0,0,2.145-2.048,32.354,32.354,0,0,0,2.32-2.71,29.792,29.792,0,0,0,2.243-3.373l7.839,8.97a1.887,1.887,0,0,0,.858.663,1.244,1.244,0,0,0,.819-.156,1.148,1.148,0,0,0,.6-.468,3.1,3.1,0,0,0-.02-1.17L38.3-6.2a2.65,2.65,0,0,0-.39-1.073,3.126,3.126,0,0,0-.819-.643q-.312-.2-.6-.371t-.566-.371q-.273-.195-.546-.429a5.405,5.405,0,0,1-.546-.546L29.679-14.82a26.365,26.365,0,0,0,1.17-3.042A31.59,31.59,0,0,0,31.707-21.216Z" transform="translate(53 39.441)" fill="#fff"/>
          <circle id="타원_23" data-name="타원 23" cx="3.247" cy="3.247" r="3.247" transform="translate(14.934)" fill="#fff"/>
          <circle id="타원_24" data-name="타원 24" cx="3.247" cy="3.247" r="3.247" transform="translate(51.295)" fill="#fff"/>
          <circle id="타원_25" data-name="타원 25" cx="3.247" cy="3.247" r="3.247" transform="translate(87.656)" fill="#fff"/>
        </g>
      </g>
    </g>
  </g>
</svg>
