<svg xmlns="http://www.w3.org/2000/svg" width="75.604" height="75.604" viewBox="0 0 75.604 75.604">
  <g id="그룹_161" data-name="그룹 161" transform="translate(-1010 -93.198)">
    <g id="그룹_84" data-name="그룹 84" transform="translate(1028.541 93.198) rotate(18)">
      <g id="패스_4" data-name="패스 4" transform="translate(0)" fill="#fff">
        <path d="M 30.00000190734863 58.50001525878906 C 25.50706100463867 58.50001525878906 21.05547142028809 57.43982696533203 17.1264820098877 55.43405532836914 L 16.56167221069336 55.14571762084961 L 15.96130180358887 55.3499755859375 L 8.451162338256836 57.90520858764648 L 8.451162338256836 49.19293594360352 L 8.451162338256836 48.65158462524414 L 8.105451583862305 48.23501586914062 C 6.003081798553467 45.70167541503906 4.367841720581055 42.87349700927734 3.245151996612549 39.82902526855469 C 2.087152004241943 36.68882751464844 1.500001907348633 33.38186645507812 1.500001907348633 30.0000057220459 C 1.500001907348633 26.15186500549316 2.253331899642944 22.41963577270508 3.739061832427979 18.90698623657227 C 5.174421787261963 15.51339530944824 7.229581832885742 12.46533584594727 9.847461700439453 9.847465515136719 C 12.46533203125 7.229585647583008 15.51339149475098 5.174425601959229 18.906982421875 3.739065647125244 C 22.41963195800781 2.25333571434021 26.1518611907959 1.500005722045898 30.00000190734863 1.500005722045898 C 33.84814071655273 1.500005722045898 37.58037185668945 2.25333571434021 41.09303283691406 3.739065647125244 C 44.48661041259766 5.174425601959229 47.53467178344727 7.229585647583008 50.15255355834961 9.847465515136719 C 52.77042007446289 12.46533584594727 54.82558059692383 15.51339530944824 56.26095199584961 18.90698623657227 C 57.74667358398438 22.41963577270508 58.5 26.15186500549316 58.5 30.0000057220459 C 58.5 33.84814453125 57.74667358398438 37.58037567138672 56.26095199584961 41.09303665161133 C 54.82558059692383 44.48661422729492 52.77042007446289 47.53468704223633 50.15255355834961 50.15255737304688 C 47.53467178344727 52.77043533325195 44.48661041259766 54.82559585571289 41.09303283691406 56.26095581054688 C 37.58037185668945 57.74668502807617 33.84814071655273 58.50001525878906 30.00000190734863 58.50001525878906 Z" stroke="none"/>
        <path d="M 30.00000190734863 2.999996185302734 C 26.35370254516602 2.999996185302734 22.81806945800781 3.713451385498047 19.49130249023438 5.120559692382812 C 16.27652359008789 6.480293273925781 13.38872528076172 8.427516937255859 10.90812301635742 10.90811538696289 C 8.427513122558594 13.38871765136719 6.480300903320312 16.27651596069336 5.120567321777344 19.49130630493164 C 3.713459014892578 22.81807327270508 3.000003814697266 26.35370635986328 3.000003814697266 30.0000057220459 C 3.000003814697266 33.20419311523438 3.555980682373047 36.33654022216797 4.652500152587891 39.31003952026367 C 5.716190338134766 42.19449615478516 7.266281127929688 44.87499237060547 9.259735107421875 47.27709579467773 L 9.951156616210938 48.11025238037109 L 9.951156616210938 55.81040954589844 L 16.67887878417969 53.52138519287109 L 17.80852508544922 54.09807205200195 C 21.52730178833008 55.99652862548828 25.74304580688477 57.00000762939453 30.00000190734863 57.00000762939453 C 33.64630126953125 57.00000762939453 37.18193435668945 56.28654861450195 40.50870132446289 54.87944030761719 C 43.72348022460938 53.51970672607422 46.61127853393555 51.57249450683594 49.09188842773438 49.09189605712891 C 51.57249069213867 46.61128234863281 53.51970291137695 43.72348403930664 54.87943649291992 40.50870513916016 C 56.28654479980469 37.18193817138672 57 33.64630508422852 57 30.0000057220459 C 57 26.35370635986328 56.28654479980469 22.81807327270508 54.87943649291992 19.49130630493164 C 53.51970291137695 16.27651596069336 51.57249069213867 13.38871765136719 49.09188079833984 10.90811538696289 C 46.61127853393555 8.427516937255859 43.72348022460938 6.480293273925781 40.50870132446289 5.120559692382812 C 37.18193435668945 3.713451385498047 33.64630126953125 2.999996185302734 30.00000190734863 2.999996185302734 M 30.00000190734863 -3.814697265625e-06 C 46.56854629516602 -3.814697265625e-06 60 13.43146133422852 60 30.0000057220459 C 60 46.56855010986328 46.56854629516602 60.00000762939453 30.00000190734863 60.00000762939453 C 25.0957145690918 60.00000762939453 20.46628952026367 58.82319641113281 16.4444694519043 56.77002716064453 L 6.951156616210938 60.00000762939453 L 6.951156616210938 49.19293975830078 C 2.583713531494141 43.93020629882812 3.814697265625e-06 37.26683807373047 3.814697265625e-06 30.0000057220459 C 3.814697265625e-06 13.43146133422852 13.43145751953125 -3.814697265625e-06 30.00000190734863 -3.814697265625e-06 Z" stroke="none" fill="#ede682"/>
      </g>
    </g>
    <g id="그룹_160" data-name="그룹 160">
      <g id="다각형_10" data-name="다각형 10" transform="translate(1035 122)" fill="#7fd8da">
        <path d="M 22.57220077514648 22.5 L 3.427799940109253 22.5 C 2.88838005065918 22.5 2.40405011177063 22.22184944152832 2.13221001625061 21.75593948364258 C 1.860360026359558 21.29002952575684 1.856529951095581 20.73151016235352 2.121949911117554 20.26191902160645 L 11.6941499710083 3.326479434967041 C 11.96380996704102 2.849389314651489 12.451979637146 2.564569473266602 13 2.564569473266602 C 13.548020362854 2.564569473266602 14.03619003295898 2.849389314651489 14.3058500289917 3.326479434967041 L 23.87804985046387 20.26191902160645 C 24.14347076416016 20.73151016235352 24.13964080810547 21.29002952575684 23.86779022216797 21.75593948364258 C 23.59594917297363 22.22184944152832 23.11161994934082 22.5 22.57220077514648 22.5 Z" stroke="none"/>
        <path d="M 13 3.064569473266602 C 12.82456970214844 3.064569473266602 12.3885498046875 3.114059448242188 12.12942981719971 3.572509765625 L 2.557229995727539 20.50794982910156 C 2.302179336547852 20.95919036865234 2.47705078125 21.35480880737305 2.564069747924805 21.50395011901855 C 2.651090621948242 21.65309906005859 2.909460067749023 22 3.427799224853516 22 L 22.57220077514648 22 C 23.09053993225098 22 23.34890937805176 21.65309906005859 23.4359302520752 21.50395011901855 C 23.52294921875 21.35480880737305 23.69782066345215 20.95919036865234 23.44277000427246 20.50794982910156 L 13.87057018280029 3.572509765625 C 13.6114501953125 3.114059448242188 13.17543029785156 3.064569473266602 13 3.064569473266602 M 13 2.064567565917969 C 13.67916488647461 2.064567565917969 14.35832977294922 2.403194427490234 14.74112987518311 3.080450057983398 L 24.31332969665527 20.01588821411133 C 25.0669002532959 21.34912872314453 24.10367965698242 23 22.57220077514648 23 L 3.427799224853516 23 C 1.896320343017578 23 0.9330997467041016 21.34912872314453 1.686670303344727 20.01588821411133 L 11.25887012481689 3.080450057983398 C 11.64167022705078 2.403194427490234 12.32083511352539 2.064567565917969 13 2.064567565917969 Z" stroke="none" fill="#fff"/>
      </g>
      <g id="다각형_11" data-name="다각형 11" transform="translate(1025 127)" fill="#7fd8da">
        <path d="M 16.6009693145752 17.50000381469727 L 3.399029970169067 17.50000381469727 C 2.861910104751587 17.50000381469727 2.378609895706177 17.22362327575684 2.106220006942749 16.76069259643555 C 1.833829998970032 16.29775428771973 1.826939940452576 15.74106311798096 2.087790012359619 15.27153301239014 L 8.688759803771973 3.389783382415771 C 8.957150459289551 2.906673431396484 9.44734001159668 2.618253469467163 10 2.618253469467163 C 10.55265045166016 2.618253469467163 11.04284000396729 2.906673431396484 11.31122970581055 3.389783382415771 L 17.91221046447754 15.27153301239014 C 18.17305946350098 15.74106311798096 18.16617012023926 16.29775428771973 17.89377975463867 16.76069259643555 C 17.62138938903809 17.22362327575684 17.13809013366699 17.50000381469727 16.6009693145752 17.50000381469727 Z" stroke="none"/>
        <path d="M 9.999990463256836 3.118244171142578 C 9.823080062866211 3.118244171142578 9.383749961853027 3.168363571166992 9.125840187072754 3.632602691650391 L 2.524869918823242 15.51435279846191 C 2.274209976196289 15.96554374694824 2.449960708618164 16.35893249511719 2.537160873413086 16.50712394714355 C 2.624349594116211 16.65532302856445 2.882890701293945 17.00000381469727 3.399030685424805 17.00000381469727 L 16.6009693145752 17.00000381469727 C 17.11710929870605 17.00000381469727 17.37565040588379 16.65532302856445 17.46284103393555 16.50712394714355 C 17.55003929138184 16.35893249511719 17.72579002380371 15.96554374694824 17.47512054443359 15.51435279846191 L 10.87415981292725 3.632614135742188 C 10.61623954772949 3.168363571166992 10.17691040039062 3.118244171142578 9.999990463256836 3.118244171142578 M 9.999995231628418 2.118247985839844 C 10.68365001678467 2.118247985839844 11.36730480194092 2.461153030395508 11.74831008911133 3.146963119506836 L 18.34927940368652 15.02871322631836 C 19.08987998962402 16.36177444458008 18.12594032287598 18.00000381469727 16.6009693145752 18.00000381469727 L 3.399030685424805 18.00000381469727 C 1.874059677124023 18.00000381469727 0.9101200103759766 16.36177444458008 1.65070915222168 15.02871322631836 L 8.251680374145508 3.146963119506836 C 8.632684707641602 2.461153030395508 9.316340446472168 2.118247985839844 9.999995231628418 2.118247985839844 Z" stroke="none" fill="#fff"/>
      </g>
      <g id="다각형_12" data-name="다각형 12" transform="translate(1051 127)" fill="#7fd8da">
        <path d="M 16.6009693145752 17.50000381469727 L 3.399029970169067 17.50000381469727 C 2.861910104751587 17.50000381469727 2.378609895706177 17.22362327575684 2.106220006942749 16.76069259643555 C 1.833829998970032 16.29775428771973 1.826939940452576 15.74106311798096 2.087790012359619 15.27153301239014 L 8.688759803771973 3.389783382415771 C 8.957150459289551 2.906673431396484 9.44734001159668 2.618253469467163 10 2.618253469467163 C 10.55265045166016 2.618253469467163 11.04284000396729 2.906673431396484 11.31122970581055 3.389783382415771 L 17.91221046447754 15.27153301239014 C 18.17305946350098 15.74106311798096 18.16617012023926 16.29775428771973 17.89377975463867 16.76069259643555 C 17.62138938903809 17.22362327575684 17.13809013366699 17.50000381469727 16.6009693145752 17.50000381469727 Z" stroke="none"/>
        <path d="M 9.999990463256836 3.118244171142578 C 9.823080062866211 3.118244171142578 9.383749961853027 3.168363571166992 9.125840187072754 3.632602691650391 L 2.524869918823242 15.51435279846191 C 2.274209976196289 15.96554374694824 2.449960708618164 16.35893249511719 2.537160873413086 16.50712394714355 C 2.624349594116211 16.65532302856445 2.882890701293945 17.00000381469727 3.399030685424805 17.00000381469727 L 16.6009693145752 17.00000381469727 C 17.11710929870605 17.00000381469727 17.37565040588379 16.65532302856445 17.46284103393555 16.50712394714355 C 17.55003929138184 16.35893249511719 17.72579002380371 15.96554374694824 17.47512054443359 15.51435279846191 L 10.87415981292725 3.632614135742188 C 10.61623954772949 3.168363571166992 10.17691040039062 3.118244171142578 9.999990463256836 3.118244171142578 M 9.999995231628418 2.118247985839844 C 10.68365001678467 2.118247985839844 11.36730480194092 2.461153030395508 11.74831008911133 3.146963119506836 L 18.34927940368652 15.02871322631836 C 19.08987998962402 16.36177444458008 18.12594032287598 18.00000381469727 16.6009693145752 18.00000381469727 L 3.399030685424805 18.00000381469727 C 1.874059677124023 18.00000381469727 0.9101200103759766 16.36177444458008 1.65070915222168 15.02871322631836 L 8.251680374145508 3.146963119506836 C 8.632684707641602 2.461153030395508 9.316340446472168 2.118247985839844 9.999995231628418 2.118247985839844 Z" stroke="none" fill="#fff"/>
      </g>
      <g id="타원_49" data-name="타원 49" transform="translate(1041 117)" fill="#7fd8da" stroke="#fff" stroke-width="1">
        <circle cx="7" cy="7" r="7" stroke="none"/>
        <circle cx="7" cy="7" r="6.5" fill="none"/>
      </g>
      <g id="타원_51" data-name="타원 51" transform="translate(1054 121)" fill="#7fd8da" stroke="#fff" stroke-width="1">
        <circle cx="7" cy="7" r="7" stroke="none"/>
        <circle cx="7" cy="7" r="6.5" fill="none"/>
      </g>
      <g id="타원_50" data-name="타원 50" transform="translate(1028 121)" fill="#7fd8da" stroke="#fff" stroke-width="1">
        <circle cx="7" cy="7" r="7" stroke="none"/>
        <circle cx="7" cy="7" r="6.5" fill="none"/>
      </g>
    </g>
  </g>
</svg>
