<svg xmlns="http://www.w3.org/2000/svg" width="75.604" height="75.604" viewBox="0 0 75.604 75.604">
  <g id="그룹_150" data-name="그룹 150" transform="translate(-1010 -93.198)">
    <g id="그룹_84" data-name="그룹 84" transform="translate(1028.541 93.198) rotate(18)">
      <g id="패스_4" data-name="패스 4" transform="translate(0)" fill="#fff">
        <path d="M 30.00000190734863 58.50001525878906 C 25.50706100463867 58.50001525878906 21.05547142028809 57.43982696533203 17.1264820098877 55.43405532836914 L 16.56167221069336 55.14571762084961 L 15.96130180358887 55.3499755859375 L 8.451162338256836 57.90520858764648 L 8.451162338256836 49.19293594360352 L 8.451162338256836 48.65158462524414 L 8.105451583862305 48.23501586914062 C 6.003081798553467 45.70167541503906 4.367841720581055 42.87349700927734 3.245151996612549 39.82902526855469 C 2.087152004241943 36.68882751464844 1.500001907348633 33.38186645507812 1.500001907348633 30.0000057220459 C 1.500001907348633 26.15186500549316 2.253331899642944 22.41963577270508 3.739061832427979 18.90698623657227 C 5.174421787261963 15.51339530944824 7.229581832885742 12.46533584594727 9.847461700439453 9.847465515136719 C 12.46533203125 7.229585647583008 15.51339149475098 5.174425601959229 18.906982421875 3.739065647125244 C 22.41963195800781 2.25333571434021 26.1518611907959 1.500005722045898 30.00000190734863 1.500005722045898 C 33.84814071655273 1.500005722045898 37.58037185668945 2.25333571434021 41.09303283691406 3.739065647125244 C 44.48661041259766 5.174425601959229 47.53467178344727 7.229585647583008 50.15255355834961 9.847465515136719 C 52.77042007446289 12.46533584594727 54.82558059692383 15.51339530944824 56.26095199584961 18.90698623657227 C 57.74667358398438 22.41963577270508 58.5 26.15186500549316 58.5 30.0000057220459 C 58.5 33.84814453125 57.74667358398438 37.58037567138672 56.26095199584961 41.09303665161133 C 54.82558059692383 44.48661422729492 52.77042007446289 47.53468704223633 50.15255355834961 50.15255737304688 C 47.53467178344727 52.77043533325195 44.48661041259766 54.82559585571289 41.09303283691406 56.26095581054688 C 37.58037185668945 57.74668502807617 33.84814071655273 58.50001525878906 30.00000190734863 58.50001525878906 Z" stroke="none"/>
        <path d="M 30.00000190734863 2.999996185302734 C 26.35370254516602 2.999996185302734 22.81806945800781 3.713451385498047 19.49130249023438 5.120559692382812 C 16.27652359008789 6.480293273925781 13.38872528076172 8.427516937255859 10.90812301635742 10.90811538696289 C 8.427513122558594 13.38871765136719 6.480300903320312 16.27651596069336 5.120567321777344 19.49130630493164 C 3.713459014892578 22.81807327270508 3.000003814697266 26.35370635986328 3.000003814697266 30.0000057220459 C 3.000003814697266 33.20419311523438 3.555980682373047 36.33654022216797 4.652500152587891 39.31003952026367 C 5.716190338134766 42.19449615478516 7.266281127929688 44.87499237060547 9.259735107421875 47.27709579467773 L 9.951156616210938 48.11025238037109 L 9.951156616210938 55.81040954589844 L 16.67887878417969 53.52138519287109 L 17.80852508544922 54.09807205200195 C 21.52730178833008 55.99652862548828 25.74304580688477 57.00000762939453 30.00000190734863 57.00000762939453 C 33.64630126953125 57.00000762939453 37.18193435668945 56.28654861450195 40.50870132446289 54.87944030761719 C 43.72348022460938 53.51970672607422 46.61127853393555 51.57249450683594 49.09188842773438 49.09189605712891 C 51.57249069213867 46.61128234863281 53.51970291137695 43.72348403930664 54.87943649291992 40.50870513916016 C 56.28654479980469 37.18193817138672 57 33.64630508422852 57 30.0000057220459 C 57 26.35370635986328 56.28654479980469 22.81807327270508 54.87943649291992 19.49130630493164 C 53.51970291137695 16.27651596069336 51.57249069213867 13.38871765136719 49.09188079833984 10.90811538696289 C 46.61127853393555 8.427516937255859 43.72348022460938 6.480293273925781 40.50870132446289 5.120559692382812 C 37.18193435668945 3.713451385498047 33.64630126953125 2.999996185302734 30.00000190734863 2.999996185302734 M 30.00000190734863 -3.814697265625e-06 C 46.56854629516602 -3.814697265625e-06 60 13.43146133422852 60 30.0000057220459 C 60 46.56855010986328 46.56854629516602 60.00000762939453 30.00000190734863 60.00000762939453 C 25.0957145690918 60.00000762939453 20.46628952026367 58.82319641113281 16.4444694519043 56.77002716064453 L 6.951156616210938 60.00000762939453 L 6.951156616210938 49.19293975830078 C 2.583713531494141 43.93020629882812 3.814697265625e-06 37.26683807373047 3.814697265625e-06 30.0000057220459 C 3.814697265625e-06 13.43146133422852 13.43145751953125 -3.814697265625e-06 30.00000190734863 -3.814697265625e-06 Z" stroke="none" fill="#ede682"/>
      </g>
    </g>
    <g id="그룹_149" data-name="그룹 149">
      <g id="사각형_91" data-name="사각형 91" transform="translate(1032.143 111.849)" fill="#7fd8da" stroke="#fff" stroke-width="1">
        <path d="M0,0H31.318a0,0,0,0,1,0,0V28.3a10,10,0,0,1-10,10H0a0,0,0,0,1,0,0V0A0,0,0,0,1,0,0Z" stroke="none"/>
        <path d="M1,.5H30.318a.5.5,0,0,1,.5.5V28.3a9.5,9.5,0,0,1-9.5,9.5H1a.5.5,0,0,1-.5-.5V1A.5.5,0,0,1,1,.5Z" fill="none"/>
      </g>
      <rect id="사각형_92" data-name="사각형 92" width="3.452" height="3.452" transform="translate(1038.476 140.245)" fill="#ede682"/>
      <line id="선_7" data-name="선 7" x2="8.15" transform="translate(1044.35 141.853)" fill="none" stroke="#fff" stroke-linecap="round" stroke-width="2"/>
      <rect id="사각형_93" data-name="사각형 93" width="3.452" height="3.452" transform="translate(1038.476 127.338)" fill="#ede682"/>
      <line id="선_12" data-name="선 12" x2="12.083" transform="translate(1044.746 129.085)" fill="none" stroke="#fff" stroke-linecap="round" stroke-width="2"/>
      <rect id="사각형_94" data-name="사각형 94" width="3.452" height="3.452" transform="translate(1038.476 133.792)" fill="#ede682"/>
      <line id="선_13" data-name="선 13" x2="12.083" transform="translate(1044.746 135.469)" fill="none" stroke="#fff" stroke-linecap="round" stroke-width="2"/>
      <g id="그룹_55" data-name="그룹 55" transform="translate(1037.895 131.699)">
        <line id="선_10" data-name="선 10" x1="3.452" y2="3.452" transform="translate(2.301)" fill="none" stroke="#fff" stroke-linecap="round" stroke-width="2"/>
        <line id="선_11" data-name="선 11" x2="2.301" y2="2.301" transform="translate(0 1.151)" fill="none" stroke="#fff" stroke-linecap="round" stroke-width="2"/>
      </g>
      <path id="패스_97" data-name="패스 97" d="M0,0H2.3" transform="translate(1039.052 118.948)" fill="none" stroke="#fff" stroke-linecap="round" stroke-width="1"/>
      <line id="선_15" data-name="선 15" y1="3.452" transform="translate(1040.286 118.948)" fill="none" stroke="#fff" stroke-linecap="round" stroke-width="1"/>
      <g id="사각형_95" data-name="사각형 95" transform="translate(1042.909 118.329)" fill="none" stroke="#fff" stroke-width="1">
        <rect width="3.452" height="4.603" rx="1.726" stroke="none"/>
        <rect x="0.5" y="0.5" width="2.452" height="3.603" rx="1.226" fill="none"/>
      </g>
      <g id="사각형_96" data-name="사각형 96" transform="translate(1053.676 118.329)" fill="none" stroke="#fff" stroke-width="1">
        <rect width="3.452" height="4.603" rx="1.726" stroke="none"/>
        <rect x="0.5" y="0.5" width="2.452" height="3.603" rx="1.226" fill="none"/>
      </g>
      <g id="사각형_97" data-name="사각형 97" transform="translate(1049.243 118.329)" fill="none" stroke="#fff" stroke-linejoin="round" stroke-width="1">
        <path d="M0,0H1.452a2,2,0,0,1,2,2v.6a2,2,0,0,1-2,2H0a0,0,0,0,1,0,0V0A0,0,0,0,1,0,0Z" stroke="none"/>
        <path d="M1,.5h.452A1.5,1.5,0,0,1,2.952,2v.6a1.5,1.5,0,0,1-1.5,1.5H1a.5.5,0,0,1-.5-.5V1A.5.5,0,0,1,1,.5Z" fill="none"/>
      </g>
      <g id="사각형_177" data-name="사각형 177" transform="translate(1053 140)" fill="none" stroke="#fff" stroke-linejoin="round" stroke-width="1">
        <rect width="11" height="11" stroke="none"/>
        <rect x="0.5" y="0.5" width="10" height="10" fill="none"/>
      </g>
    </g>
  </g>
</svg>
