<svg xmlns="http://www.w3.org/2000/svg" xmlns:xlink="http://www.w3.org/1999/xlink" width="125.671" height="130.198" viewBox="0 0 125.671 130.198">
  <defs>
    <filter id="사각형_69" x="0" y="0" width="113.369" height="117.977" filterUnits="userSpaceOnUse">
      <feOffset dx="5" dy="5" input="SourceAlpha"/>
      <feGaussianBlur stdDeviation="2.5" result="blur"/>
      <feFlood flood-opacity="0.161"/>
      <feComposite operator="in" in2="blur"/>
      <feComposite in="SourceGraphic"/>
    </filter>
  </defs>
  <g id="그룹_25" data-name="그룹 25" transform="translate(2.5 2.5)">
    <g transform="matrix(1, 0, 0, 1, -2.5, -2.5)" filter="url(#사각형_69)">
      <g id="사각형_69-2" data-name="사각형 69" transform="translate(2.5 2.5)" fill="#fff" stroke="#707070" stroke-width="0.1">
        <rect width="98.369" height="102.977" rx="10" stroke="none"/>
        <rect x="0.05" y="0.05" width="98.269" height="102.877" rx="9.95" fill="none"/>
      </g>
    </g>
    <g id="그룹_13" data-name="그룹 13" transform="translate(20.506 25.968)">
      <path id="패스_68" data-name="패스 68" d="M0,0,7.349.168l.122,5.345L.122,5.345Z" transform="translate(10.603 0) rotate(45)" fill="#f1f1f1"/>
      <path id="패스_69" data-name="패스 69" d="M0,0,7.349.168l.122,5.345L.122,5.345Z" transform="translate(17.131 0) rotate(45)" fill="#f1f1f1"/>
      <path id="패스_70" data-name="패스 70" d="M0,0,7.349.168l.122,5.345L.122,5.345Z" transform="translate(4.075) rotate(45)" fill="#f1f1f1"/>
      <path id="패스_71" data-name="패스 71" d="M0,0,7.349.168l.122,5.345L.122,5.345Z" transform="translate(42.59) rotate(45)" fill="#f1f1f1"/>
      <path id="패스_72" data-name="패스 72" d="M0,0,7.349.168l.122,5.345L.122,5.345Z" transform="translate(49.118 0) rotate(45)" fill="#f1f1f1"/>
      <path id="패스_73" data-name="패스 73" d="M0,0,7.349.168l.122,5.345L.122,5.345Z" transform="translate(55.645 0) rotate(45)" fill="#f1f1f1"/>
    </g>
    <path id="패스_2" data-name="패스 2" d="M3.855,8.377,12.45-.236,37.486.333,70.254,33.3a6.942,6.942,0,0,1,2.028,4.663,6.178,6.178,0,0,1-1.847,4.7L36.523,76.792-1.44,75.979Z" transform="translate(71.888 22.282) rotate(45)" fill="#f1f1f1"/>
    <path id="사각형_5" data-name="사각형 5" d="M5,0H59.942a5,5,0,0,1,5,5v5a0,0,0,0,1,0,0H0a0,0,0,0,1,0,0V5A5,5,0,0,1,5,0Z" transform="translate(16.236 29.993)" fill="#7fd8da"/>
    <g id="사각형_7" data-name="사각형 7" transform="translate(16.236 37.991)" fill="#fff" stroke="#7fd8da" stroke-width="3">
      <path d="M0,0H64.942a0,0,0,0,1,0,0V33.991a5,5,0,0,1-5,5H5a5,5,0,0,1-5-5V0A0,0,0,0,1,0,0Z" stroke="none"/>
      <path d="M3,1.5H61.942a1.5,1.5,0,0,1,1.5,1.5V33.991a3.5,3.5,0,0,1-3.5,3.5H5a3.5,3.5,0,0,1-3.5-3.5V3A1.5,1.5,0,0,1,3,1.5Z" fill="none"/>
    </g>
    <g id="타원_1" data-name="타원 1" transform="translate(54.437 47.989)" fill="none" stroke="#7fd8da" stroke-width="2">
      <ellipse cx="2.865" cy="2.499" rx="2.865" ry="2.499" stroke="none"/>
      <ellipse cx="2.865" cy="2.499" rx="1.865" ry="1.499" fill="none"/>
    </g>
    <g id="타원_2" data-name="타원 2" transform="translate(38.201 47.989)" fill="none" stroke="#7fd8da" stroke-width="2">
      <ellipse cx="2.388" cy="2.499" rx="2.388" ry="2.499" stroke="none"/>
      <ellipse cx="2.388" cy="2.499" rx="1.388" ry="1.499" fill="none"/>
    </g>
    <line id="선_1" data-name="선 1" y2="12.997" transform="translate(48.707 42.99)" fill="none" stroke="#7fd8da" stroke-linecap="round" stroke-width="2"/>
    <path id="패스_1" data-name="패스 1" d="M49.505,285.426H36.45s2.6,15.034,6.528,15.034S49.505,285.426,49.505,285.426Z" transform="translate(5.981 -229.391)" fill="none" stroke="#7fd8da" stroke-linecap="round" stroke-linejoin="round" stroke-width="2"/>
    <g data-type="innerShadowGroup">
      <rect id="사각형_13" data-name="사각형 13" width="4.775" height="9.998" rx="2.388" transform="translate(21.011 24.994)" fill="#ede682"/>
      <rect id="사각형_13-2" data-name="사각형 13" width="4.775" height="9.998" rx="2.388" transform="translate(21.011 24.994)" fill="#fff"/>
      <g id="사각형_13-3" data-name="사각형 13" transform="translate(21.011 24.994)" fill="none" stroke="#fff" stroke-width="1">
        <rect width="4.775" height="9.998" rx="2.388" stroke="none"/>
        <rect x="0.5" y="0.5" width="3.775" height="8.998" rx="1.888" fill="none"/>
      </g>
    </g>
    <rect id="사각형_42" data-name="사각형 42" width="8.595" height="8.998" transform="translate(27.696 52.988)" fill="#ede682"/>
    <rect id="사각형_47" data-name="사각형 47" width="8.595" height="7.998" transform="translate(27.696 61.986)" fill="rgba(237,230,130,0.25)"/>
    <g id="사각형_52" data-name="사각형 52" transform="translate(27.696 24.994)" fill="#ede682" stroke="#fff" stroke-width="1">
      <rect width="3.82" height="9.998" rx="1.91" stroke="none"/>
      <rect x="0.5" y="0.5" width="2.82" height="8.998" rx="1.41" fill="none"/>
    </g>
    <g id="사각형_53" data-name="사각형 53" transform="translate(34.381 24.994)" fill="#ede682" stroke="#fff" stroke-width="1">
      <rect width="3.82" height="9.998" rx="1.91" stroke="none"/>
      <rect x="0.5" y="0.5" width="2.82" height="8.998" rx="1.41" fill="none"/>
    </g>
    <g id="사각형_54" data-name="사각형 54" transform="translate(72.583 24.994)" fill="#ede682" stroke="#fff" stroke-width="1">
      <rect width="4.775" height="9.998" rx="2.388" stroke="none"/>
      <rect x="0.5" y="0.5" width="3.775" height="8.998" rx="1.888" fill="none"/>
    </g>
    <g id="사각형_55" data-name="사각형 55" transform="translate(59.212 24.994)" fill="#ede682" stroke="#fff" stroke-width="1">
      <rect width="4.775" height="9.998" rx="2.388" stroke="none"/>
      <rect x="0.5" y="0.5" width="3.775" height="8.998" rx="1.888" fill="none"/>
    </g>
    <g id="사각형_56" data-name="사각형 56" transform="translate(65.898 24.994)" fill="#ede682" stroke="#fff" stroke-width="1">
      <rect width="4.775" height="9.998" rx="2.388" stroke="none"/>
      <rect x="0.5" y="0.5" width="3.775" height="8.998" rx="1.888" fill="none"/>
    </g>
    <rect id="사각형_57" data-name="사각형 57" width="7.64" height="8.998" transform="translate(20.056 43.99)" fill="rgba(237,230,130,0.5)"/>
    <rect id="사각형_58" data-name="사각형 58" width="7.64" height="8.998" transform="translate(62.077 52.988)" fill="#ede682"/>
    <rect id="사각형_59" data-name="사각형 59" width="7.64" height="7.998" transform="translate(70.673 61.986)" fill="rgba(237,230,130,0.5)"/>
    <rect id="사각형_60" data-name="사각형 60" width="7.64" height="8.998" transform="translate(70.673 43.99)" fill="rgba(237,230,130,0.25)"/>
    <g data-type="innerShadowGroup">
      <rect id="사각형_70" data-name="사각형 70" width="2.865" height="7.998" rx="1.433" transform="translate(21.966 25.994)" fill="#ede682"/>
      <rect id="사각형_70-2" data-name="사각형 70" width="2.865" height="7.998" rx="1.433" transform="translate(21.966 25.994)" fill="#fff"/>
    </g>
    <g id="그룹_20" data-name="그룹 20" transform="translate(40.473 69.361)">
      <g id="다각형_3" data-name="다각형 3" transform="translate(9.792 0) rotate(90)" fill="#ede682">
        <path d="M 10.49154853820801 9.291769981384277 L 1.809008121490479 9.291769981384277 C 1.54282808303833 9.291769981384277 1.414308071136475 9.111269950866699 1.371408104896545 9.033659934997559 C 1.328508138656616 8.956059455871582 1.244018077850342 8.751219749450684 1.385598063468933 8.525829315185547 L 5.72687816619873 1.614149808883667 C 5.85955810546875 1.402889728546143 6.067178249359131 1.38008975982666 6.150278091430664 1.38008975982666 C 6.233377933502197 1.38008975982666 6.440998077392578 1.402889728546143 6.573678016662598 1.614139795303345 L 10.91495800018311 8.525829315185547 C 11.05653762817383 8.751219749450684 10.97204780578613 8.956059455871582 10.92914772033691 9.033659934997559 C 10.8862476348877 9.111269950866699 10.75772762298584 9.291769981384277 10.49154853820801 9.291769981384277 Z" stroke="none"/>
        <path d="M 6.150131702423096 1.880322456359863 L 1.808998107910156 8.791769981384277 C 1.809001922607422 8.791769981384277 1.809004783630371 8.791769981384277 1.80900764465332 8.791769981384277 L 10.49154853820801 8.791769981384277 C 10.49155044555664 8.791769981384277 10.49154949188232 8.791763305664062 10.49155807495117 8.791769981384277 L 6.150131702423096 1.880322456359863 M 6.150278091430664 0.8800868988037109 C 6.475675582885742 0.8800868988037109 6.80107307434082 1.036125183105469 6.997087955474854 1.348199844360352 L 11.33836841583252 8.259880065917969 C 11.75665855407715 8.925839424133301 11.27798843383789 9.791769981384277 10.49154853820801 9.791769981384277 L 1.80900764465332 9.791769981384277 C 1.022567749023438 9.791769981384277 0.5438880920410156 8.925839424133301 0.9621877670288086 8.259880065917969 L 5.303468227386475 1.348199844360352 C 5.499483108520508 1.036125183105469 5.824880599975586 0.8800868988037109 6.150278091430664 0.8800868988037109 Z" stroke="none" fill="#fff"/>
      </g>
      <g id="다각형_4" data-name="다각형 4" transform="translate(7.181 12.301) rotate(-90)" fill="#ede682">
        <path d="M 10.49154853820801 9.291769981384277 L 1.809008121490479 9.291769981384277 C 1.54282808303833 9.291769981384277 1.414308071136475 9.111269950866699 1.371408104896545 9.033659934997559 C 1.328508138656616 8.956059455871582 1.244018077850342 8.751219749450684 1.385598063468933 8.525829315185547 L 5.72687816619873 1.614149808883667 C 5.85955810546875 1.402889728546143 6.067178249359131 1.38008975982666 6.150278091430664 1.38008975982666 C 6.233377933502197 1.38008975982666 6.440998077392578 1.402889728546143 6.573678016662598 1.614139795303345 L 10.91495800018311 8.525829315185547 C 11.05653762817383 8.751219749450684 10.97204780578613 8.956059455871582 10.92914772033691 9.033659934997559 C 10.8862476348877 9.111269950866699 10.75772762298584 9.291769981384277 10.49154853820801 9.291769981384277 Z" stroke="none"/>
        <path d="M 6.150131702423096 1.880322456359863 L 1.808998107910156 8.791769981384277 C 1.809001922607422 8.791769981384277 1.809004783630371 8.791769981384277 1.80900764465332 8.791769981384277 L 10.49154853820801 8.791769981384277 C 10.49155044555664 8.791769981384277 10.49154949188232 8.791763305664062 10.49155807495117 8.791769981384277 L 6.150131702423096 1.880322456359863 M 6.150278091430664 0.8800868988037109 C 6.475675582885742 0.8800868988037109 6.80107307434082 1.036125183105469 6.997087955474854 1.348199844360352 L 11.33836841583252 8.259880065917969 C 11.75665855407715 8.925839424133301 11.27798843383789 9.791769981384277 10.49154853820801 9.791769981384277 L 1.80900764465332 9.791769981384277 C 1.022567749023438 9.791769981384277 0.5438880920410156 8.925839424133301 0.9621877670288086 8.259880065917969 L 5.303468227386475 1.348199844360352 C 5.499483108520508 1.036125183105469 5.824880599975586 0.8800868988037109 6.150278091430664 0.8800868988037109 Z" stroke="none" fill="#fff"/>
      </g>
      <g id="타원_3" data-name="타원 3" transform="translate(6.528 4.1)" fill="#ede682" stroke="#fff" stroke-width="1">
        <ellipse cx="1.958" cy="2.05" rx="1.958" ry="2.05" stroke="none"/>
        <ellipse cx="1.958" cy="2.05" rx="1.458" ry="1.55" fill="none"/>
      </g>
    </g>
  </g>
</svg>
