<svg xmlns="http://www.w3.org/2000/svg" width="43" height="43" viewBox="0 0 43 43">
  <g id="그룹_134" data-name="그룹 134" transform="translate(-1241 -171.153)">
    <g id="사각형_166" data-name="사각형 166" transform="translate(1269 171.153)" fill="#b3dfb0" stroke="#fff" stroke-width="1">
      <rect width="15" height="15" stroke="none"/>
      <rect x="0.5" y="0.5" width="14" height="14" fill="none"/>
    </g>
    <g id="사각형_167" data-name="사각형 167" transform="translate(1255 171.153)" fill="#9bdcc4" stroke="#fff" stroke-width="1">
      <rect width="15" height="15" stroke="none"/>
      <rect x="0.5" y="0.5" width="14" height="14" fill="none"/>
    </g>
    <g id="사각형_168" data-name="사각형 168" transform="translate(1241 171.153)" fill="#7fd8da" stroke="#fff" stroke-width="1">
      <rect width="15" height="15" stroke="none"/>
      <rect x="0.5" y="0.5" width="14" height="14" fill="none"/>
    </g>
    <g id="사각형_169" data-name="사각형 169" transform="translate(1241 185.153)" fill="#9bdcc4" stroke="#fff" stroke-width="1">
      <rect width="15" height="15" stroke="none"/>
      <rect x="0.5" y="0.5" width="14" height="14" fill="none"/>
    </g>
    <g id="사각형_170" data-name="사각형 170" transform="translate(1255 185.153)" fill="#b3dfb0" stroke="#fff" stroke-width="1">
      <rect width="15" height="15" stroke="none"/>
      <rect x="0.5" y="0.5" width="14" height="14" fill="none"/>
    </g>
    <g id="사각형_171" data-name="사각형 171" transform="translate(1269 185.153)" fill="#dae492" stroke="#fff" stroke-width="1">
      <rect width="15" height="15" stroke="none"/>
      <rect x="0.5" y="0.5" width="14" height="14" fill="none"/>
    </g>
    <g id="사각형_172" data-name="사각형 172" transform="translate(1269 199.153)" fill="#ede682" stroke="#fff" stroke-width="1">
      <rect width="15" height="15" stroke="none"/>
      <rect x="0.5" y="0.5" width="14" height="14" fill="none"/>
    </g>
    <g id="사각형_173" data-name="사각형 173" transform="translate(1255 199.153)" fill="#dae492" stroke="#fff" stroke-width="1">
      <rect width="15" height="15" stroke="none"/>
      <rect x="0.5" y="0.5" width="14" height="14" fill="none"/>
    </g>
    <g id="사각형_174" data-name="사각형 174" transform="translate(1241 199.153)" fill="#b3dfb0" stroke="#fff" stroke-width="1">
      <rect width="15" height="15" stroke="none"/>
      <rect x="0.5" y="0.5" width="14" height="14" fill="none"/>
    </g>
  </g>
</svg>
